<?xml version="1.0" standalone="no"?>
<!DOCTYPE svg PUBLIC "-//W3C//DTD SVG 20010904//EN"
 "http://www.w3.org/TR/2001/REC-SVG-20010904/DTD/svg10.dtd">
<svg version="1.0" xmlns="http://www.w3.org/2000/svg"
 width="360.000000pt" height="360.000000pt" viewBox="0 0 360.000000 360.000000"
 preserveAspectRatio="xMidYMid meet">

<g transform="translate(0.000000,360.000000) scale(0.100000,-0.100000)"
fill="#000000" stroke="none">
<path d="M619 3241 c-37 -30 -32 -126 14 -261 105 -314 249 -597 365 -717 124
-129 393 -333 529 -402 l41 -20 22 72 c12 39 37 109 57 154 34 81 34 83 16
106 -147 185 -702 830 -860 1000 -79 85 -137 107 -184 68z"/>
<path d="M3173 1925 c-127 -34 -358 -131 -518 -216 -95 -51 -184 -79 -247 -79
l-39 0 15 -28 c19 -38 145 -155 209 -196 29 -18 73 -42 98 -53 l46 -21 165
167 c281 284 378 396 378 436 0 9 -53 4 -107 -10z"/>
<path d="M1208 1827 c-228 -144 -421 -340 -561 -572 -144 -237 -245 -501 -298
-777 -17 -92 -19 -112 -7 -120 16 -11 138 -2 235 18 328 67 725 310 847 518
31 53 32 47 -24 141 -70 116 -107 231 -95 293 13 69 30 88 142 150 150 85 147
82 133 117 -7 17 -15 52 -19 80 -6 49 -7 50 -52 62 -30 9 -73 36 -124 78 -43
36 -81 65 -85 65 -4 0 -45 -24 -92 -53z"/>
<path d="M2098 1830 c-45 -24 -56 -39 -23 -33 17 4 32 -3 51 -22 25 -25 26
-31 21 -92 -4 -52 -15 -86 -61 -178 -72 -144 -74 -153 -86 -309 -6 -70 -15
-137 -21 -148 -9 -17 -1 -34 47 -106 266 -402 437 -545 700 -587 213 -35 312
-20 361 54 32 47 29 79 -9 118 l-31 32 -2 178 c-1 139 -6 190 -19 233 -51 158
-134 249 -310 337 -61 30 -138 75 -171 98 -73 52 -181 163 -196 201 -8 22 -48
194 -49 212 0 2 -16 10 -35 18 -48 20 -123 17 -167 -6z"/>
<path d="M2040 1761 c-73 -23 -664 -354 -685 -384 -21 -30 -19 -117 5 -187 39
-115 153 -286 211 -316 64 -33 199 -11 278 46 81 59 121 152 121 283 0 100 24
184 85 306 44 88 58 128 63 174 4 51 2 62 -13 74 -21 14 -28 15 -65 4z"/>
<path d="M1907 931 l-48 -49 51 -119 c66 -152 145 -297 191 -345 39 -41 76
-49 103 -22 22 21 20 61 -7 180 -22 96 -26 105 -103 210 -44 60 -92 128 -107
152 -15 23 -28 42 -30 42 -1 0 -24 -22 -50 -49z"/>
</g>
</svg>
