<?xml version="1.0" encoding="UTF-8"?>
<svg version="1.1" xmlns="http://www.w3.org/2000/svg" width="360" height="360">
<path d="M0 0 C10.58641138 4.98291432 17.4469068 15.28380788 24.609375 24.13671875 C28.08628534 28.30105744 31.76762939 32.26311688 35.453125 36.2421875 C38.70879807 39.76750221 41.86267461 43.36957829 45 47 C45.96463174 48.11086122 46.92949806 49.22151876 47.89453125 50.33203125 C51.26849407 54.2166286 54.63594405 58.10682126 58 62 C58.53383301 62.6177832 59.06766602 63.23556641 59.61767578 63.87207031 C65.40984698 70.58257831 71.13141138 77.33579663 76.71875 84.21875 C79.29842854 87.36383753 81.92630334 90.46481088 84.5625 93.5625 C89.15056346 98.95663958 93.61736972 104.43694781 98 110 C98.77988281 109.68804687 99.55976563 109.37609375 100.36328125 109.0546875 C101.97135417 108.41145833 103.57942708 107.76822917 105.1875 107.125 C107.48405524 105.69955192 107.86051926 104.43509868 109 102 C109.81673614 100.43042551 110.63734239 98.86286131 111.4609375 97.296875 C112.16863281 95.94916016 112.16863281 95.94916016 112.890625 94.57421875 C113.87208258 92.70686657 114.85384821 90.83967627 115.8359375 88.97265625 C117.99766348 84.85480323 120.14134401 80.73523858 122.1875 76.55859375 C126.35361962 68.37899251 131.48518596 64.40030528 140 61 C142.76215319 60.16554454 145.30445071 59.81301747 148.1875 59.75 C149.22970703 59.71132812 149.22970703 59.71132812 150.29296875 59.671875 C158.57046783 60.67520822 163.49538721 63.69263296 169 69.8125 C173.46899934 74.56493771 177.60905457 78.58413451 183.42578125 81.69140625 C185.6291834 83.52301846 185.68197986 85.22999848 186 88 C181.82193352 91.04864586 179.15755696 91.2121329 174.0625 90.875 C166.09447555 90.70263369 159.03792533 92.03203023 152 96 C150.46404345 99.13486215 151.04904603 100.15803721 152.125 103.625 C153.40318327 106.81162282 154.9421312 109.78813211 156.5625 112.8125 C161.05701921 121.7475502 161.1503366 130.97565691 161.53393555 140.77636719 C161.87549333 148.08526679 163.16046689 154.90796353 165 162 C175.94299089 162.8582738 185.33979472 158.58036982 194.71142578 153.35009766 C213.16557188 143.18755028 236.49846899 131.31741171 258 132 C259.48291661 138.17881922 259.48291661 138.17881922 257.3046875 141.8828125 C247.98860673 154.4832065 236.8544162 165.31749255 225.72607422 176.28808594 C225.1602211 176.8472168 224.59436798 177.40634766 224.0113678 177.98242188 C222.93357214 179.04639695 221.85345148 180.10802328 220.77073669 181.16699219 C218.03859136 183.81895184 218.03859136 183.81895184 216 187 C215.34 187 214.68 187 214 187 C214 187.66 214 188.32 214 189 C213.34 189 212.68 189 212 189 C211.7525 189.5775 211.505 190.155 211.25 190.75 C209.83272743 193.30109062 208.08817713 194.97973107 206 197 C206.845625 197.54527344 207.69125 198.09054688 208.5625 198.65234375 C223.06947524 208.20446427 231.60200937 219.06230159 235.42211914 236.34814453 C236.43506591 242.74935189 236.23177983 249.10112091 236.0625 255.5625 C235.99922048 258.20974638 235.95142422 260.85610012 235.91015625 263.50390625 C235.88058838 264.65705322 235.85102051 265.8102002 235.82055664 266.99829102 C235.99939622 269.98989999 236.33934151 271.54116863 238 274 C239.36125 275.051875 239.36125 275.051875 240.75 276.125 C243 279 243 279 243.01953125 281.3671875 C242.13471502 286.464334 240.94707045 290.46841065 237 294 C222.9089473 302.68505135 205.59164282 298.53912176 190.30859375 295.19140625 C174.38476058 290.79525599 163.41918307 281.41918307 152 270 C152.165 270.886875 152.33 271.77375 152.5 272.6875 C153.00268793 276.34886878 153.20020267 279.99416564 153.3125 283.6875 C153.36857422 285.33298828 153.36857422 285.33298828 153.42578125 287.01171875 C153 290 153 290 151.27734375 292.34375 C147.95085696 294.76301312 145.61231214 294.88619232 141.578125 294.66796875 C134.38905267 292.80534546 130.92037904 285.08184708 127.38818359 279.09277344 C120.97957097 267.8411621 115.96594887 255.94063204 111 244 C107.13042415 244.51531882 103.39088324 245.10056433 99.625 246.125 C92.90111623 247.62046481 87.45187016 247.14847525 81.5 243.5625 C78.17682021 241.35364042 78.17682021 241.35364042 77 239 C76.34 239 75.68 239 75 239 C74.525625 239.94875 74.05125 240.8975 73.5625 241.875 C59.3202525 266.66150794 26.48359238 283.95373812 0 292 C-0.78810059 292.23976563 -1.57620117 292.47953125 -2.38818359 292.7265625 C-15.63616063 296.61324945 -28.21292569 297.95365138 -42 297 C-43 296 -43 296 -43.08984375 293.75390625 C-41.69073727 264.44441925 -30.83994316 234.10037262 -16 209 C-15.5875 208.29456055 -15.175 207.58912109 -14.75 206.86230469 C-6.32040074 192.56491407 3.58214095 180.00963832 15 168 C15.61875 167.31679687 16.2375 166.63359375 16.875 165.9296875 C25.82546019 156.37986614 37.09015264 148.54277203 48.1875 141.6875 C49.08577515 141.11914429 49.08577515 141.11914429 50.00219727 140.53930664 C53.8248585 138.26644591 56.59075447 137.12733682 61 138 C63.52050428 139.68096309 65.6342924 141.71577149 67.8125 143.8125 C72.97233249 148.53561544 76.99997308 151.55171857 84 153 C84 151.35 84 149.7 84 148 C82.69869141 147.61134766 82.69869141 147.61134766 81.37109375 147.21484375 C66.29148534 141.78059321 52.18666624 129.11895861 40 119 C39.44924805 118.5447998 38.89849609 118.08959961 38.33105469 117.62060547 C9.37366956 93.59896049 -10.81931654 53.14660077 -17 16.0625 C-17.38754989 10.11246939 -15.5960112 4.97154325 -11.875 0.375 C-7.62207905 -1.65900567 -4.46560234 -1.34989613 0 0 Z " fill="#E3C06C" transform="translate(72,31)"/>
<path d="M0 0 C2.28125 1.70703125 2.28125 1.70703125 4.5 3.8125 C5.675625 4.89337891 5.675625 4.89337891 6.875 5.99609375 C8.41957528 7.45265095 9.96080184 8.91276175 11.5 10.375 C15.08516736 12.70535878 18.82275682 13.30834318 23 14 C23.12117188 14.72445312 23.24234375 15.44890625 23.3671875 16.1953125 C23.53476563 17.16210938 23.70234375 18.12890625 23.875 19.125 C24.03742188 20.07632813 24.19984375 21.02765625 24.3671875 22.0078125 C25.02262934 25.10700044 25.94602179 28.01520457 27 31 C24.50136876 32.41912551 22.00115719 33.8353384 19.5 35.25 C18.80390625 35.64574219 18.1078125 36.04148438 17.390625 36.44921875 C13.22238847 38.80350049 9.0263807 41.01280768 4.6953125 43.05395508 C1.44845646 44.86581671 0.4360101 46.58947602 -1 50 C-2.48429711 62.62505584 0.76601634 73.03578928 7.625 83.47265625 C8.181875 84.34792969 8.73875 85.22320312 9.3125 86.125 C9.84488281 86.93195313 10.37726563 87.73890625 10.92578125 88.5703125 C12.28262522 91.63924685 12.08895697 92.84877054 11 96 C9.44140625 98.859375 9.44140625 98.859375 7.5625 101.75 C6.94503906 102.71421875 6.32757813 103.6784375 5.69140625 104.671875 C4 107 4 107 2 108 C1.505 109.485 1.505 109.485 1 111 C-0.485 111.495 -0.485 111.495 -2 112 C-2.556875 112.721875 -3.11375 113.44375 -3.6875 114.1875 C-8.28583759 119.78007275 -14.30206313 123.32588465 -20.62890625 126.703125 C-24.08043217 128.59094478 -27.40256949 130.68147659 -30.73828125 132.765625 C-32.85784403 133.92241574 -34.64141289 134.54663314 -37 135 C-37 135.66 -37 136.32 -37 137 C-38.7325 137.61875 -38.7325 137.61875 -40.5 138.25 C-43.3374645 139.30419688 -45.81195617 140.43497652 -48.5 141.875 C-62.99063413 149.26182717 -81.84427551 153.32507519 -98 152 C-98.66 151.67 -99.32 151.34 -100 151 C-99.88534579 148.77027727 -99.75785234 146.54121247 -99.625 144.3125 C-99.55539063 143.07113281 -99.48578125 141.82976562 -99.4140625 140.55078125 C-99.02454626 137.21049573 -98.23536749 135.08051419 -97 132 C-96.46047147 129.95077377 -95.96049594 127.89088427 -95.4921875 125.82421875 C-95.22792969 124.66728516 -94.96367188 123.51035156 -94.69140625 122.31835938 C-94.42199219 121.12017578 -94.15257812 119.92199219 -93.875 118.6875 C-93.59785156 117.46998047 -93.32070312 116.25246094 -93.03515625 114.99804688 C-92.35313448 111.99950288 -91.67488453 109.00015698 -91 106 C-90.34 106 -89.68 106 -89 106 C-88.6596875 104.14375 -88.6596875 104.14375 -88.3125 102.25 C-81.46366337 72.26320179 -58.51606408 39.45724163 -35 20 C-34.13117188 19.26652344 -33.26234375 18.53304687 -32.3671875 17.77734375 C-17.1630114 5.09307985 -17.1630114 5.09307985 -9 3 C-9 2.34 -9 1.68 -9 1 C-5.60985176 -1.13453778 -3.80718666 -1.15061641 0 0 Z " fill="#D739F4" transform="translate(133,173)"/>
<path d="M0 0 C0.91523438 -0.01675781 1.83046875 -0.03351563 2.7734375 -0.05078125 C6.51746592 0.42619771 8.5653602 1.03901765 11.625 3.3125 C13.00008442 6.46019603 13.61192574 9.69810844 14.25 13.0625 C17.00656052 26.72545213 23.6473362 35.3735725 34.7890625 43.66796875 C40.633826 47.53482048 46.63101507 50.86596559 52.8762207 54.04101562 C68.87893857 62.18387392 78.24598441 71.23996353 84.64453125 88.19921875 C86.3515389 93.61947811 86.73268588 98.61923429 86.6171875 104.28515625 C86.59205078 106.25258789 86.59205078 106.25258789 86.56640625 108.25976562 C86.53542351 110.32257697 86.49977665 112.38497916 86.45361328 114.44750977 C86.4111357 116.45564933 86.38892206 118.46418508 86.3671875 120.47265625 C86.3451123 121.66511963 86.32303711 122.85758301 86.30029297 124.08618164 C86.66061921 127.66641566 87.46089119 129.46716792 89.625 132.3125 C91.11 133.3025 91.11 133.3025 92.625 134.3125 C92.51119161 138.96829788 92.34827389 142.99379506 89.375 146.75 C84.15499525 151.61409534 79.2562108 151.67003169 72.4375 151.625 C71.55835938 151.62008545 70.67921875 151.6151709 69.7734375 151.61010742 C46.02414088 151.19483547 28.84597658 143.75920011 11.625 127.3125 C11.07932373 126.79236328 10.53364746 126.27222656 9.97143555 125.73632812 C5.82505093 121.70059699 2.23572133 117.47175538 -1.1875 112.8125 C-1.69667969 112.12687988 -2.20585937 111.44125977 -2.73046875 110.73486328 C-7.86466422 103.75995656 -12.64362938 96.56383975 -17.375 89.3125 C-18.14199219 88.26835937 -18.90898437 87.22421875 -19.69921875 86.1484375 C-21.375 83.3125 -21.375 83.3125 -21.36328125 81.171875 C-21.14027344 80.47578125 -20.91726562 79.7796875 -20.6875 79.0625 C-19.39363038 74.09765146 -19.11895315 69.40992155 -18.9375 64.3125 C-18.38235856 52.61054647 -15.02737555 44.1407295 -9.59960938 33.81835938 C-6.33639915 27.5597736 -4.09286566 21.72879473 -4.0625 14.5625 C-4.04574219 13.63953125 -4.02898437 12.7165625 -4.01171875 11.765625 C-4.1801828 9.27286715 -4.1801828 9.27286715 -5.7265625 7.52734375 C-7.86229936 5.95337654 -9.77383575 5.66400868 -12.375 5.3125 C-8.68166254 1.2498288 -5.47756759 0.02301499 0 0 Z " fill="#510F57" transform="translate(218.375,174.6875)"/>
<path d="M0 0 C10.58641138 4.98291432 17.4469068 15.28380788 24.609375 24.13671875 C28.08628534 28.30105744 31.76762939 32.26311688 35.453125 36.2421875 C38.70879807 39.76750221 41.86267461 43.36957829 45 47 C45.96463174 48.11086122 46.92949806 49.22151876 47.89453125 50.33203125 C51.26849407 54.2166286 54.63594405 58.10682126 58 62 C58.53383301 62.6177832 59.06766602 63.23556641 59.61767578 63.87207031 C65.40984698 70.58257831 71.13141138 77.33579663 76.71875 84.21875 C79.75600324 87.92170258 82.86053022 91.56557735 85.96704102 95.21044922 C89.53693186 99.41351434 92.97220388 103.70978087 96.34375 108.07421875 C98.03959745 110.22077679 98.03959745 110.22077679 101 112 C100.01 112.33 99.02 112.66 98 113 C97.87625 113.804375 97.7525 114.60875 97.625 115.4375 C97.41875 116.283125 97.2125 117.12875 97 118 C96.01 118.495 96.01 118.495 95 119 C95.0928125 117.95457031 95.185625 116.90914063 95.28125 115.83203125 C94.93602745 111.12837406 93.79843566 109.96109805 90.5 106.6875 C87.14085258 103.22441272 83.92201663 99.79244638 80.9375 96 C80.29039062 95.17886719 79.64328125 94.35773438 78.9765625 93.51171875 C78.32429688 92.68285156 77.67203125 91.85398437 77 91 C70.95384346 83.45967834 64.68692181 76.13000723 58.33984375 68.84375 C55.11945263 65.14512003 51.93304005 61.41826432 48.75 57.6875 C44.57191764 52.79742997 40.32266685 47.98170473 36.00390625 43.21484375 C31.0522603 37.74197191 26.26128013 32.13821012 21.5 26.5 C20.09104477 24.83430712 18.68172301 23.16892623 17.27197266 21.50390625 C16.16228681 20.19187845 15.05550271 18.8773975 13.94921875 17.5625 C11.31369976 14.47701435 8.72844709 11.67248301 5.5625 9.125 C4.2940625 8.073125 4.2940625 8.073125 3 7 C3 6.34 3 5.68 3 5 C-1.29 4.34 -5.58 3.68 -10 3 C-10 3.66 -10 4.32 -10 5 C-10.66 5 -11.32 5 -12 5 C-12.08264614 7.12431186 -12.13991672 9.24961366 -12.1875 11.375 C-12.22230469 12.55835938 -12.25710937 13.74171875 -12.29296875 14.9609375 C-12.13978938 19.90298777 -10.56836985 24.34817837 -9 29 C-8.70295166 29.90492187 -8.40590332 30.80984375 -8.09985352 31.7421875 C-3.97023103 44.18839581 0.4438747 56.20030682 6.48046875 67.859375 C6.94066406 68.75140625 7.40085938 69.6434375 7.875 70.5625 C8.28492188 71.32691406 8.69484375 72.09132813 9.1171875 72.87890625 C10 75 10 75 10 79 C10.66 79 11.32 79 12 79 C12.31710938 79.64324219 12.63421875 80.28648438 12.9609375 80.94921875 C20.19726697 94.9621109 30.26093413 107.40017153 43.125 116.62109375 C44.88864411 117.91810703 46.49682304 119.28871118 48.125 120.75 C53.72415442 125.62215715 59.91766075 129.76139569 66 134 C66.55478027 134.39074707 67.10956055 134.78149414 67.68115234 135.18408203 C73.60075399 139.34268737 79.06143955 142.86505832 86 145 C86.0825 143.9275 86.165 142.855 86.25 141.75 C86.95274134 135.9182957 89.02768958 130.50412211 91 125 C91.33 126.32 91.66 127.64 92 129 C93.78821774 126.31767339 95.20142604 123.69711039 96.625 120.8125 C97.07101563 119.91144531 97.51703125 119.01039063 97.9765625 118.08203125 C98.31429687 117.39496094 98.65203125 116.70789063 99 116 C99.66 116 100.32 116 101 116 C101.26425781 115.3915625 101.52851563 114.783125 101.80078125 114.15625 C103.07148501 111.8714667 104.08845503 110.99863165 106.1875 109.5 C111.26976725 105.33889369 113.91850035 99.6930706 117 94 C117.72575416 92.78961396 118.45424677 91.58085786 119.1875 90.375 C121.50822953 86.05364156 123.26643328 81.58288649 125 77 C125.66 77 126.32 77 127 77 C127.185625 76.29875 127.37125 75.5975 127.5625 74.875 C130.14403163 69.71193675 134.54571209 66.38982563 139.8125 64.125 C146.60326383 61.91833013 153.77455797 62.15338199 160.34375 64.96875 C163.0684834 66.66528212 164.30659471 69.31047394 166 72 C170.90291018 76.90291018 176.06164232 81.40573088 182 85 C181.67 85.99 181.34 86.98 181 88 C179.43765625 87.87818359 179.43765625 87.87818359 177.84375 87.75390625 C166.28965846 87.1458676 158.17184449 89.63342794 148 95 C147.49915333 101.16364526 149.04571821 104.90436939 151.875 110.3125 C157.52579293 121.77869592 158.3051198 131.2866751 158 144 C155.61435923 143.42415568 153.33317216 142.77772405 151 142 C142.80361321 141.14861293 142.80361321 141.14861293 135.375 144 C134.199375 144.99 134.199375 144.99 133 146 C132.34 146 131.68 146 131 146 C131 146.66 131 147.32 131 148 C125.6874554 153.46011528 118.94551216 156.69138795 112.17480469 159.93017578 C106.37732011 162.7255373 101.039977 165.98884766 95.671875 169.53125 C93 171 93 171 89 171 C89.33 171.66 89.66 172.32 90 173 C90.99 173.33 91.98 173.66 93 174 C91.90328979 174.59687622 91.90328979 174.59687622 90.78442383 175.20581055 C88.05026686 176.6992394 85.32054456 178.2004049 82.59350586 179.70678711 C80.84099466 180.67180938 79.08361558 181.62797438 77.32617188 182.58398438 C76.21435547 183.19951172 75.10253906 183.81503906 73.95703125 184.44921875 C72.93585205 185.00955811 71.91467285 185.56989746 70.86254883 186.1472168 C67.18196412 188.52947328 63.47387807 190.96862059 62.44140625 195.39453125 C63.27901732 212.1197329 71.13761677 228.13761677 83 240 C88.36506429 243.42767996 96.03516367 242.57824063 102.0625 241.3125 C110.4543534 238.85428032 116.72973226 234.73042038 121 227 C124.18704295 220.26346609 124.41987137 213.18959576 124.53442383 205.85986328 C124.81855298 195.32486878 128.46983484 186.32374577 133.125 177 C134.02477147 175.16732099 134.92326858 173.33401561 135.8203125 171.5 C136.21492676 170.7059375 136.60954102 169.911875 137.01611328 169.09375 C138.70752375 165.49436138 139.11356706 162.74466377 139.0625 158.8125 C139.05347656 157.91144531 139.04445312 157.01039063 139.03515625 156.08203125 C139.02355469 155.39496094 139.01195312 154.70789063 139 154 C136.03 153.01 136.03 153.01 133 152 C133 151.34 133 150.68 133 150 C139.47915126 149.63325559 139.47915126 149.63325559 141.703125 151.19921875 C144.38449817 154.92245078 143.4919479 159.6403238 143 164 C141.20832406 171.51602423 137.4367888 178.38888129 133.81835938 185.16674805 C129.92324172 192.61644201 128.74927524 199.53187379 128.5 207.875 C128.3257935 212.98887089 128.02172823 217.47105735 126.4375 222.375 C125.74032032 225.50964759 125.86656472 226.71067842 127.23046875 229.66796875 C128.93831691 232.27727903 130.74236199 234.76341127 132.65380859 237.2265625 C134.1261341 239.16616577 135.51344052 241.15071779 136.89453125 243.15625 C147.51717246 258.57765562 158.74747643 272.873763 174 284 C173.67 284.66 173.34 285.32 173 286 C164.69662345 284.66382446 157.55018486 275.88099058 152 270 C152.165 270.886875 152.33 271.77375 152.5 272.6875 C153.00268793 276.34886878 153.20020267 279.99416564 153.3125 283.6875 C153.36857422 285.33298828 153.36857422 285.33298828 153.42578125 287.01171875 C153 290 153 290 151.27734375 292.34375 C147.95085696 294.76301312 145.61231214 294.88619232 141.578125 294.66796875 C134.38905267 292.80534546 130.92037904 285.08184708 127.38818359 279.09277344 C120.97957097 267.8411621 115.96594887 255.94063204 111 244 C107.13042415 244.51531882 103.39088324 245.10056433 99.625 246.125 C92.90111623 247.62046481 87.45187016 247.14847525 81.5 243.5625 C78.17682021 241.35364042 78.17682021 241.35364042 77 239 C76.34 239 75.68 239 75 239 C74.525625 239.94875 74.05125 240.8975 73.5625 241.875 C59.3202525 266.66150794 26.48359238 283.95373812 0 292 C-0.78810059 292.23976563 -1.57620117 292.47953125 -2.38818359 292.7265625 C-15.63616063 296.61324945 -28.21292569 297.95365138 -42 297 C-43 296 -43 296 -43.08984375 293.75390625 C-41.69073727 264.44441925 -30.83994316 234.10037262 -16 209 C-15.5875 208.29456055 -15.175 207.58912109 -14.75 206.86230469 C-6.32040074 192.56491407 3.58214095 180.00963832 15 168 C15.61875 167.31679687 16.2375 166.63359375 16.875 165.9296875 C25.82546019 156.37986614 37.09015264 148.54277203 48.1875 141.6875 C49.08577515 141.11914429 49.08577515 141.11914429 50.00219727 140.53930664 C53.8248585 138.26644591 56.59075447 137.12733682 61 138 C63.52050428 139.68096309 65.6342924 141.71577149 67.8125 143.8125 C72.97233249 148.53561544 76.99997308 151.55171857 84 153 C84 151.35 84 149.7 84 148 C82.69869141 147.61134766 82.69869141 147.61134766 81.37109375 147.21484375 C66.29148534 141.78059321 52.18666624 129.11895861 40 119 C39.44924805 118.5447998 38.89849609 118.08959961 38.33105469 117.62060547 C9.37366956 93.59896049 -10.81931654 53.14660077 -17 16.0625 C-17.38754989 10.11246939 -15.5960112 4.97154325 -11.875 0.375 C-7.62207905 -1.65900567 -4.46560234 -1.34989613 0 0 Z M52 143 C52 143.66 52 144.32 52 145 C51.14664063 145.23847656 50.29328125 145.47695312 49.4140625 145.72265625 C45.63433554 147.13681039 42.60398661 149.07517175 39.375 151.4375 C38.77179932 151.87344482 38.16859863 152.30938965 37.54711914 152.75854492 C29.36925059 158.78936139 22.16961366 165.81853574 15 173 C14.43796875 173.52722656 13.8759375 174.05445313 13.296875 174.59765625 C-5.03943736 191.9615884 -21.4297913 220.67933795 -28 245 C-28 245.99 -28 246.98 -28 248 C-28.66 248 -29.32 248 -30 248 C-30.17128418 248.76143311 -30.34256836 249.52286621 -30.51904297 250.30737305 C-31.30011217 253.76839034 -32.08748839 257.22794317 -32.875 260.6875 C-33.14441406 261.88568359 -33.41382813 263.08386719 -33.69140625 264.31835938 C-33.95566406 265.47529297 -34.21992187 266.63222656 -34.4921875 267.82421875 C-34.85352783 269.41882935 -34.85352783 269.41882935 -35.22216797 271.0456543 C-36 274 -36 274 -37.06835938 276.6640625 C-38.34811029 279.87282999 -38.43223773 282.87490627 -38.625 286.3125 C-38.69976562 287.56675781 -38.77453125 288.82101562 -38.8515625 290.11328125 C-38.90054688 291.06589844 -38.94953125 292.01851562 -39 293 C-28.0745626 298.4627187 -9.65959091 291.7518822 1.375 288.125 C7.17081079 286.16153628 12.68776237 283.95247568 18.0546875 280.98046875 C20.02639419 279.9866969 21.84471522 279.44942037 24 279 C24 278.34 24 277.68 24 277 C24.8559375 276.74992188 25.711875 276.49984375 26.59375 276.2421875 C30.24886734 274.90924333 33.21243793 273.19929512 36.5 271.125 C37.5828125 270.44695312 38.665625 269.76890625 39.78125 269.0703125 C44.57972685 265.98391356 49.29774652 262.86681955 53.8125 259.375 C54.58207031 258.78460938 55.35164063 258.19421875 56.14453125 257.5859375 C58.10136128 256.12172449 58.10136128 256.12172449 59 254 C59.99 253.67 60.98 253.34 62 253 C62.495 251.515 62.495 251.515 63 250 C63.556875 249.46375 64.11375 248.9275 64.6875 248.375 C68.65464858 244.30063119 72.82955926 239.7838654 73.1875 233.9375 C71.57974075 229.96041132 69.3781922 226.55682704 67 223 C60.98954593 213.63076278 58.45833516 203.12935192 60 192 C61.73014271 187.52469752 63.99310337 185.50344832 68.25 183.375 C69.4875 182.92125 70.725 182.4675 72 182 C75.04736158 180.41688485 78.02059525 178.70700518 81 177 C81.70253906 176.60039062 82.40507812 176.20078125 83.12890625 175.7890625 C84.75461732 174.86289983 86.37762867 173.93200055 88 173 C87.79503906 172.35933594 87.59007812 171.71867187 87.37890625 171.05859375 C85.81172636 166.02712149 84.56957826 161.24011997 84 156 C83.15163574 155.88893921 83.15163574 155.88893921 82.28613281 155.77563477 C75.87355976 154.68517524 72.36816526 152.40416437 67.75 147.9375 C60.80414107 141.02819375 60.80414107 141.02819375 52 143 Z " fill="#EEBD7A" transform="translate(72,31)"/>
<path d="M0 0 C9.00488557 -0.78683466 9.00488557 -0.78683466 12.6875 2.125 C13.450625 3.07375 14.21375 4.0225 15 5 C16.10824749 5.9572454 17.23467828 6.89369773 18.375 7.8125 C22.35729981 11.19788121 25.63728572 15.010339 29 19 C30.9547487 21.29473611 32.91469214 23.58501235 34.875 25.875 C35.65206299 26.78403076 35.65206299 26.78403076 36.44482422 27.71142578 C40.23122663 32.13106931 44.09202714 36.47633531 48 40.7890625 C58.02743879 51.87408273 67.63263775 63.35245045 77.2734375 74.7734375 C79.12798918 76.97028566 80.98778077 79.16254006 82.8515625 81.3515625 C87.71459613 87.06885654 92.51822422 92.81152855 97.13671875 98.73046875 C98.97026616 101.03351533 98.97026616 101.03351533 101.08203125 103.11328125 C105.81242475 107.91831607 105.81242475 107.91831607 106.3515625 111.02734375 C106.05319571 114.72851269 105.04303137 116.92860504 103.09765625 120.15625 C100.62592977 124.36486535 99.45473535 128.73600135 98.25 133.4375 C97.91935547 134.67790039 97.91935547 134.67790039 97.58203125 135.94335938 C97.04583923 137.95990762 96.52165825 139.97964325 96 142 C88.18235895 140.14965196 82.20813458 136.35964775 75.6875 131.8125 C74.84735352 131.23169678 74.00720703 130.65089355 73.14160156 130.05249023 C67.22230297 125.92950726 61.49626229 121.67721144 56 117 C55.38382813 116.48179687 54.76765625 115.96359375 54.1328125 115.4296875 C52.98334442 114.45391682 51.83981828 113.47109163 50.703125 112.48046875 C49.51656273 111.44903045 48.31757726 110.43178437 47.109375 109.42578125 C39.19398133 102.74132478 32.62634864 95.31162994 27 86.625 C26.61400635 86.03001709 26.2280127 85.43503418 25.83032227 84.82202148 C24.02463293 81.9463847 22.53309559 79.38182512 22 76 C21.34 76 20.68 76 20 76 C19.78085938 75.41734375 19.56171875 74.8346875 19.3359375 74.234375 C17.49358874 69.47122944 15.48371871 64.90622279 13.125 60.375 C6.0319748 46.42121492 -3.43040373 25.88416712 -3.1875 10.25 C-3.18105469 9.32703125 -3.17460938 8.4040625 -3.16796875 7.453125 C-3 5 -3 5 -2 2 C-1.34 2 -0.68 2 0 2 C0 1.34 0 0.68 0 0 Z " fill="#D73AF3" transform="translate(62,34)"/>
<path d="M0 0 C1.39712274 1.95597184 2.71927629 3.9659094 4 6 C8.90291018 10.90291018 14.06164232 15.40573088 20 19 C19.505 20.485 19.505 20.485 19 22 C17.9584375 21.91878906 16.916875 21.83757812 15.84375 21.75390625 C4.28965846 21.1458676 -3.82815551 23.63342794 -14 29 C-14.50084667 35.16364526 -12.95428179 38.90436939 -10.125 44.3125 C-4.47420707 55.77869592 -3.6948802 65.2866751 -4 78 C-6.38564077 77.42415568 -8.66682784 76.77772405 -11 76 C-19.19638679 75.14861293 -19.19638679 75.14861293 -26.625 78 C-27.800625 78.99 -27.800625 78.99 -29 80 C-29.66 80 -30.32 80 -31 80 C-31 80.66 -31 81.32 -31 82 C-36.31265763 87.46023145 -43.0537796 90.68866804 -49.82299805 93.93017578 C-55.64132119 96.73789072 -61.01894227 100.00357588 -66.42578125 103.53125 C-69 105 -69 105 -72 105 C-77.97109847 94.55057767 -75.09359825 82.459652 -72.2824707 71.42993164 C-70.14913942 63.73884717 -66.97166641 56.91321762 -63 50 C-62.34 50 -61.68 50 -61 50 C-60.73574219 49.3915625 -60.47148437 48.783125 -60.19921875 48.15625 C-58.92851499 45.8714667 -57.91154497 44.99863165 -55.8125 43.5 C-50.73023275 39.33889369 -48.08149965 33.6930706 -45 28 C-44.27424584 26.78961396 -43.54575323 25.58085786 -42.8125 24.375 C-40.49177047 20.05364156 -38.73356672 15.58288649 -37 11 C-36.34 11 -35.68 11 -35 11 C-34.7215625 9.948125 -34.7215625 9.948125 -34.4375 8.875 C-31.85596837 3.71193675 -27.45428791 0.38982563 -22.1875 -1.875 C-14.97269032 -4.21946427 -6.5655992 -4.0880146 0 0 Z " fill="#A1C330" transform="translate(234,97)"/>
<path d="M0 0 C2.39717862 2.39717862 2.3468288 3.07883503 2.4375 6.375 C2.24290437 14.86423428 -1.94045706 21.97487822 -5.75512695 29.37109375 C-10.43605387 38.49026008 -11.98014896 45.77666728 -12.4375 55.9375 C-12.92487457 66.53870745 -14.41632364 75.0627723 -22 83 C-29.59623392 89.59011023 -37.68622158 91.38118885 -47.61328125 91.203125 C-52.78745794 90.76276954 -55.84701534 88.3895501 -59.3125 84.75 C-62.51265537 80.9012608 -65.15346607 76.76743445 -67.75 72.5 C-68.12680908 71.88350586 -68.50361816 71.26701172 -68.8918457 70.63183594 C-73.51542466 62.80016477 -75.87781094 55.03471603 -76.375 45.9375 C-76.42398438 45.12152344 -76.47296875 44.30554688 -76.5234375 43.46484375 C-75.50434674 38.66599101 -71.65215248 36.43007658 -67.7421875 33.8515625 C-66.45827592 33.1004996 -65.16878298 32.3589278 -63.875 31.625 C-63.15489746 31.20927734 -62.43479492 30.79355469 -61.69287109 30.36523438 C-59.13566038 28.89733312 -56.56917851 27.44685316 -54 26 C-52.96810547 25.41831055 -51.93621094 24.83662109 -50.87304688 24.23730469 C-39.31741956 17.74023296 -27.72373328 11.31450578 -16 5.125 C-15.22350098 4.71443359 -14.44700195 4.30386719 -13.64697266 3.88085938 C-8.96407547 1.43131115 -5.35000403 -0.41153877 0 0 Z " fill="#510F57" transform="translate(210,183)"/>
<path d="M0 0 C-1.00039582 10.24285871 -10.47790082 17.72600411 -17.57348633 24.58837891 C-20.2167699 27.15382621 -22.69872769 29.77885481 -25.08984375 32.58203125 C-30.2251607 38.52221038 -35.86693422 43.97297352 -41.4375 49.5 C-42.5620833 50.61955632 -43.68643405 51.73934629 -44.81054688 52.859375 C-47.53769344 55.57561534 -50.26795907 58.28868292 -53 61 C-59.15089805 58.73851544 -64.66384996 56.34614982 -69.9375 52.4375 C-70.52233154 52.01057861 -71.10716309 51.58365723 -71.7097168 51.14379883 C-86.95430261 39.72433108 -86.95430261 39.72433108 -88.79296875 33.17578125 C-88.86128906 32.45777344 -88.92960938 31.73976562 -89 31 C-88.20078125 30.91363281 -87.4015625 30.82726562 -86.578125 30.73828125 C-76.05919967 29.39255019 -67.60333438 26.00244457 -58.37280273 20.94042969 C-50.50536967 16.63333871 -42.52371596 13.00725393 -34.1875 9.6875 C-33.16245361 9.27927002 -32.13740723 8.87104004 -31.08129883 8.45043945 C-9.48226022 0 -9.48226022 0 0 0 Z " fill="#510F57" transform="translate(327,166)"/>
<path d="M0 0 C1.734375 0.1015625 1.734375 0.1015625 4 1 C5.57859483 3.10677129 6.91746008 5.12188186 8.25 7.375 C9.036322 8.65273224 9.8254299 9.92875383 10.6171875 11.203125 C11.01260742 11.84185547 11.40802734 12.48058594 11.81542969 13.13867188 C15.07340266 18.25795999 18.70220128 23.24489982 22.58984375 27.90625 C28.21903415 36.26427231 29.18522616 48.2425567 28 58 C26 60 26 60 22.375 60.8125 C19.13359969 60.74190689 18.19255331 60.19361323 15.87109375 57.859375 C13.75349159 54.98232918 11.84474595 52.05880953 10 49 C9.47921875 48.1440625 8.9584375 47.288125 8.421875 46.40625 C6.42506709 42.96347774 4.83159645 39.91288016 4 36 C3.34 36 2.68 36 2 36 C1.69707031 35.17757812 1.39414063 34.35515625 1.08203125 33.5078125 C-1.30355973 27.15113008 -3.80588095 21.11786086 -7.1796875 15.21875 C-8.24736445 12.33093807 -7.99651309 10.89853352 -7 8 C-5.37109375 5.76171875 -5.37109375 5.76171875 -3.4375 3.6875 C-2.79683594 2.99011719 -2.15617188 2.29273438 -1.49609375 1.57421875 C-1.00238281 1.05472656 -0.50867188 0.53523438 0 0 Z " fill="#D73AF2" transform="translate(194,262)"/>
<path d="M0 0 C1.04220703 -0.03867188 1.04220703 -0.03867188 2.10546875 -0.078125 C10.38296783 0.92520822 15.30788721 3.94263296 20.8125 10.0625 C25.28149934 14.81493771 29.42155457 18.83413451 35.23828125 21.94140625 C37.4416834 23.77301846 37.49447986 25.47999848 37.8125 28.25 C33.63443352 31.29864586 30.97005696 31.4621329 25.875 31.125 C17.90697555 30.95263369 10.85042533 32.28203023 3.8125 36.25 C2.27654345 39.38486215 2.86154603 40.40803721 3.9375 43.875 C5.60404478 48.00278452 7.63367528 51.92971969 9.7265625 55.85546875 C11.6192224 60.02885192 11.93965371 64.05054774 11.9453125 68.59375 C11.94660156 69.59277344 11.94789063 70.59179688 11.94921875 71.62109375 C11.94535156 72.65363281 11.94148438 73.68617188 11.9375 74.75 C11.94136719 75.78253906 11.94523437 76.81507813 11.94921875 77.87890625 C11.94792969 78.87792969 11.94664062 79.87695312 11.9453125 80.90625 C11.94418457 81.81181641 11.94305664 82.71738281 11.94189453 83.65039062 C11.81132431 86.27362019 11.39320158 88.69191438 10.8125 91.25 C10.77125 90.63125 10.73 90.0125 10.6875 89.375 C9.98112455 87.01477007 9.98112455 87.01477007 7.4375 86 C0.12477278 84.48702196 -6.71242165 84.04994918 -13.1875 88.25 C-11.8675 88.91 -10.5475 89.57 -9.1875 90.25 C-11.1675 90.25 -13.1475 90.25 -15.1875 90.25 C-15.1875 91.24 -15.1875 92.23 -15.1875 93.25 C-16.0081897 93.62584229 -16.0081897 93.62584229 -16.84545898 94.00927734 C-27.44078398 98.88819383 -37.81070771 103.86669837 -47.67944336 110.11279297 C-51.53237311 112.50119278 -54.5650958 113.84277119 -59.1875 114.25 C-59.1875 113.26 -59.1875 112.27 -59.1875 111.25 C-57.81078125 110.70666016 -57.81078125 110.70666016 -56.40625 110.15234375 C-50.93701797 107.8070116 -45.8440068 104.76709256 -40.6875 101.8125 C-39.68074219 101.23951172 -38.67398438 100.66652344 -37.63671875 100.07617188 C-35.69027454 98.9677446 -33.74514448 97.85700556 -31.80151367 96.74365234 C-30.19589624 95.82619951 -28.58732264 94.9138689 -26.97387695 94.01025391 C-23.97205802 92.32669408 -21.55846338 90.74575092 -19.1875 88.25 C-18.5275 88.25 -17.8675 88.25 -17.1875 88.25 C-17.1875 87.59 -17.1875 86.93 -17.1875 86.25 C-13.07406506 82.25754844 -8.77922195 80.87802012 -3.125 80.75 C1.86346514 80.95232051 5.44800266 81.86936509 9.8125 84.25 C9.28335508 70.89365242 7.44490505 59.52853671 1.14990234 47.58789062 C-1.02841426 43.29892873 -1.5119042 40.03037126 -1.1875 35.25 C0.70704824 34.28912864 2.60319581 33.33141031 4.5 32.375 C6.08361328 31.57449219 6.08361328 31.57449219 7.69921875 30.7578125 C8.72660156 30.26023437 9.75398438 29.76265625 10.8125 29.25 C11.5859375 28.858125 12.359375 28.46625 13.15625 28.0625 C16.99282205 26.88896031 20.6397965 27.03814728 24.625 27.125 C25.80739258 27.13853516 25.80739258 27.13853516 27.01367188 27.15234375 C28.94674666 27.17577496 30.8796638 27.21164162 32.8125 27.25 C33.1425 26.59 33.4725 25.93 33.8125 25.25 C33.24144531 24.98445313 32.67039062 24.71890625 32.08203125 24.4453125 C24.91184436 20.6689318 18.51737914 14.83077951 13.8125 8.25 C13.8125 7.59 13.8125 6.93 13.8125 6.25 C4.75655009 3.56675558 -3.10687979 3.0310149 -11.91796875 6.90234375 C-16.09818934 9.38457456 -19.0252464 12.9254928 -21.1875 17.25 C-21.8475 17.25 -22.5075 17.25 -23.1875 17.25 C-23.35765625 17.89066406 -23.5278125 18.53132813 -23.703125 19.19140625 C-25.2463554 24.6994254 -27.13887307 29.40370247 -30.1875 34.25 C-30.76628906 35.26449219 -31.34507812 36.27898437 -31.94140625 37.32421875 C-35.55018439 43.51775774 -38.92049992 48.57394319 -44.62109375 52.98046875 C-46.32674373 54.18408692 -46.32674373 54.18408692 -47.1875 56.25 C-47.8475 56.25 -48.5075 56.25 -49.1875 56.25 C-49.46335938 56.94480469 -49.73921875 57.63960937 -50.0234375 58.35546875 C-51.26193603 61.43509094 -52.53344886 64.49950912 -53.8125 67.5625 C-54.48152344 69.16544922 -54.48152344 69.16544922 -55.1640625 70.80078125 C-55.67066406 72.01314453 -55.67066406 72.01314453 -56.1875 73.25 C-57.30771481 69.92720067 -57.07431157 67.98090999 -55.9375 64.6875 C-55.68484375 63.92308594 -55.4321875 63.15867188 -55.171875 62.37109375 C-54.13376331 60.13421024 -52.91506416 58.96785875 -51.1875 57.25 C-51.1875 56.404375 -51.1875 55.55875 -51.1875 54.6875 C-51.1875 53.883125 -51.1875 53.07875 -51.1875 52.25 C-50.1975 51.59 -49.2075 50.93 -48.1875 50.25 C-47.341875 49.54875 -46.49625 48.8475 -45.625 48.125 C-43.1875 46.25 -43.1875 46.25 -41.1875 46.25 C-40.90825684 45.68700195 -40.62901367 45.12400391 -40.34130859 44.54394531 C-39.16123669 42.19778458 -37.94900392 39.87122892 -36.7265625 37.546875 C-36.25476563 36.64839844 -35.78296875 35.74992187 -35.296875 34.82421875 C-34.31541742 32.95686657 -33.33365179 31.08967627 -32.3515625 29.22265625 C-30.18983652 25.10480323 -28.04615599 20.98523858 -26 16.80859375 C-21.83388038 8.62899251 -16.70231404 4.65030528 -8.1875 1.25 C-5.42534681 0.41554454 -2.88304929 0.06301747 0 0 Z " fill="#E4CB5E" transform="translate(220.1875,90.75)"/>
<path d="M0 0 C0.495 0.99 0.495 0.99 1 2 C0.06640625 3.8203125 0.06640625 3.8203125 -1.4375 6.125 C-9.4346246 19.06479189 -15.01381621 32.66472159 -20 47 C-20.66 47 -21.32 47 -22 47 C-22.0825 48.134375 -22.165 49.26875 -22.25 50.4375 C-22.78489078 55.29802925 -23.8241978 59.99607748 -24.9375 64.75 C-25.10733398 65.48275146 -25.27716797 66.21550293 -25.45214844 66.97045898 C-26.17374917 69.98090852 -26.91572554 72.79473149 -28.09375 75.6640625 C-29.14543962 78.37488316 -29.37504156 80.72936543 -29.5625 83.625 C-29.76951698 86.70913045 -30.01721121 89.05163364 -31 92 C-26.05 92.33 -21.1 92.66 -16 93 C-16 93.33 -16 93.66 -16 94 C-18.47923801 94.02685095 -20.9581884 94.04676547 -23.4375 94.0625 C-24.14455078 94.07087891 -24.85160156 94.07925781 -25.58007812 94.08789062 C-27.38693559 94.09653588 -29.19387603 94.05220011 -31 94 C-32 93 -32 93 -32.25 89.4375 C-32.18155745 80.95062406 -30.16472216 72.17550407 -28 64 C-28.33 64 -28.66 64 -29 64 C-28.51480846 56.01561985 -26.27856574 49.11979203 -23.5625 41.625 C-22.90012329 39.78119751 -22.90012329 39.78119751 -22.22436523 37.90014648 C-18.3543042 27.41642146 -13.62868838 17.6396882 -8 8 C-7.46632813 7.04609375 -6.93265625 6.0921875 -6.3828125 5.109375 C-4.66205777 2.48449491 -2.76220746 1.41843086 0 0 Z " fill="#F2C48C" transform="translate(64,232)"/>
<path d="M0 0 C-0.09375 1.7421875 -0.09375 1.7421875 -1 4 C-3.15649856 5.53621538 -5.20307285 6.84242709 -7.5 8.125 C-11.93439199 10.34849142 -11.93439199 10.34849142 -15 14 C-16.15670796 28.4722996 -10.2246086 39.35242977 -2.70703125 51.27734375 C-1 54 -1 54 0 56 C-0.66 56 -1.32 56 -2 56 C-2.33 56.99 -2.66 57.98 -3 59 C-3.99 59.66 -4.98 60.32 -6 61 C-7.01187895 62.65948148 -8.0126546 64.32580562 -9 66 C-9.99 66.495 -9.99 66.495 -11 67 C-9.89972055 64.71480423 -8.78722971 62.70054552 -7.3125 60.625 C-5.56326722 57.12653444 -5.83207545 55.72275949 -7 52 C-8.51905776 49.23294311 -10.24628858 46.62285286 -12 44 C-17.95027886 34.7245653 -20.73574711 24.02626237 -19 13 C-16.93454429 8.31976524 -14.06760576 5.19258439 -9.375 3.125 C-8.26125 2.75375 -7.1475 2.3825 -6 2 C-5.236875 1.608125 -4.47375 1.21625 -3.6875 0.8125 C-2 0 -2 0 0 0 Z " fill="#F1B387" transform="translate(150,210)"/>
<path d="M0 0 C6.47915126 -0.36674441 6.47915126 -0.36674441 8.703125 1.19921875 C11.38449817 4.92245078 10.4919479 9.6403238 10 14 C8.20832406 21.51602423 4.4367888 28.38888129 0.81835938 35.16674805 C-3.17152501 42.79769021 -4.29099152 49.95494967 -4.625 58.5 C-4.66367188 59.32242188 -4.70234375 60.14484375 -4.7421875 60.9921875 C-4.83531692 62.9944701 -4.91868985 64.99720262 -5 67 C-5.33 67 -5.66 67 -6 67 C-9.51075851 51.70312364 -6.82978455 40.9296117 0.125 27 C1.02477147 25.16732099 1.92326858 23.33401561 2.8203125 21.5 C3.21492676 20.7059375 3.60954102 19.911875 4.01611328 19.09375 C5.70752375 15.49436138 6.11356706 12.74466377 6.0625 8.8125 C6.05347656 7.91144531 6.04445312 7.01039063 6.03515625 6.08203125 C6.02355469 5.39496094 6.01195312 4.70789063 6 4 C4.02 3.34 2.04 2.68 0 2 C0 1.34 0 0.68 0 0 Z " fill="#E2B575" transform="translate(205,181)"/>
<path d="M0 0 C0.99 0.33 1.98 0.66 3 1 C3.73486762 2.70712225 4.46428897 4.41715076 5.14648438 6.14599609 C10.61419853 18.02294727 27.3749762 27.34999048 39 32 C38.01 32.99 37.02 33.98 36 35 C22.40383462 28.1806067 6.04334158 18.65170275 0 4 C0 2.68 0 1.36 0 0 Z " fill="#E8BE76" transform="translate(234,194)"/>
<path d="M0 0 C1.25541557 3.76624671 0.37061958 5.37188934 -1 9 C-1.66 9 -2.32 9 -3 9 C-3.0825 10.134375 -3.165 11.26875 -3.25 12.4375 C-3.78489078 17.29802925 -4.8241978 21.99607748 -5.9375 26.75 C-6.10733398 27.48275146 -6.27716797 28.21550293 -6.45214844 28.97045898 C-7.17374917 31.98090852 -7.91572554 34.79473149 -9.09375 37.6640625 C-10.14543962 40.37488316 -10.37504156 42.72936543 -10.5625 45.625 C-10.76951698 48.70913045 -11.01721121 51.05163364 -12 54 C-7.05 54.33 -2.1 54.66 3 55 C3 55.33 3 55.66 3 56 C0.52076199 56.02685095 -1.9581884 56.04676547 -4.4375 56.0625 C-5.14455078 56.07087891 -5.85160156 56.07925781 -6.58007812 56.08789062 C-8.38693559 56.09653588 -10.19387603 56.05220011 -12 56 C-13 55 -13 55 -13.25 51.4375 C-13.18155745 42.95062406 -11.16472216 34.17550407 -9 26 C-9.33 26 -9.66 26 -10 26 C-9.5464821 18.97047248 -7.87940913 13.4150557 -5 7 C-4.01 7 -3.02 7 -2 7 C-1.855625 6.21625 -1.71125 5.4325 -1.5625 4.625 C-1 2 -1 2 0 0 Z " fill="#F3B493" transform="translate(45,270)"/>
<path d="M0 0 C0.33 0 0.66 0 1 0 C0.30492061 6.05326417 -0.71554531 11.9548433 -1.98242188 17.91210938 C-3.03718588 23.20671291 -3 27.36837156 -3 33 C4.92 33 12.84 33 21 33 C21 33.66 21 34.32 21 35 C15.38792186 36.18844008 9.89378547 36.14830682 4.1875 36.125 C3.22134766 36.12886719 2.25519531 36.13273437 1.25976562 36.13671875 C0.34259766 36.13542969 -0.57457031 36.13414062 -1.51953125 36.1328125 C-2.35589111 36.13168457 -3.19225098 36.13055664 -4.05395508 36.12939453 C-6 36 -6 36 -7 35 C-7.06229182 26.93943828 -5.79033711 19.15239236 -4.0625 11.3125 C-3.89274658 10.53463135 -3.72299316 9.7567627 -3.5480957 8.95532227 C-2.74507029 5.48446373 -1.99493522 2.99240283 0 0 Z " fill="#ECC469" transform="translate(36,292)"/>
<path d="M0 0 C-0.33 1.65 -0.66 3.3 -1 5 C-3.475 4.505 -3.475 4.505 -6 4 C-6.33 4.99 -6.66 5.98 -7 7 C-8.15628906 7.19916016 -8.15628906 7.19916016 -9.3359375 7.40234375 C-10.33882813 7.57894531 -11.34171875 7.75554687 -12.375 7.9375 C-13.37273437 8.11152344 -14.37046875 8.28554687 -15.3984375 8.46484375 C-17.96909656 8.87712062 -17.96909656 8.87712062 -20 10 C-20.99 9.67 -21.98 9.34 -23 9 C-22.67 9.99 -22.34 10.98 -22 12 C-22.33 12.66 -22.66 13.32 -23 14 C-22.01 14.33 -21.02 14.66 -20 15 C-18.5 17.5 -18.5 17.5 -17 20 C-16.01 20.33 -15.02 20.66 -14 21 C-14 22.32 -14 23.64 -14 25 C-17.78159845 23.42213025 -20.28557597 21.04655956 -23.1875 18.1875 C-24.06792969 17.33542969 -24.94835937 16.48335937 -25.85546875 15.60546875 C-28.06501652 12.92100907 -28.68759213 11.41198402 -29 8 C-28.20078125 7.91363281 -27.4015625 7.82726562 -26.578125 7.73828125 C-17.80181163 6.61548999 -8.19528485 0 0 0 Z " fill="#571941" transform="translate(267,189)"/>
<path d="M0 0 C2.7260137 1.55772212 5.18017261 3.14585402 7.625 5.125 C12.32956069 8.83912686 17.28118319 8.23501987 23 8 C24.258125 7.814375 25.51625 7.62875 26.8125 7.4375 C29.90676873 7.01279645 32.01193121 7.18507215 35 8 C28.78616318 12.14255788 20.49488328 13.85825363 13.1015625 12.6484375 C8.16907868 11.1265187 3.24946516 8.04687993 0 4 C0 2.68 0 1.36 0 0 Z " fill="#E7C96B" transform="translate(147,265)"/>
<path d="M0 0 C0.66 0 1.32 0 2 0 C1.835 0.86625 1.67 1.7325 1.5 2.625 C0.3079177 11.09051196 0.05809713 19.90976711 3 28 C3 28.66 3 29.32 3 30 C3.99 30.33 4.98 30.66 6 31 C1.05 33.64 -3.9 36.28 -9 39 C-9 37.68 -9 36.36 -9 35 C-2.25 31.125 -2.25 31.125 0 30 C-0.32742187 29.22398437 -0.65484375 28.44796875 -0.9921875 27.6484375 C-2.30492785 22.8961139 -2.2158908 18.52611137 -2.125 13.625 C-2.11597656 12.69816406 -2.10695312 11.77132812 -2.09765625 10.81640625 C-2.07422937 8.54399923 -2.04142748 6.2721382 -2 4 C-1.34 4 -0.68 4 0 4 C0 2.68 0 1.36 0 0 Z " fill="#EDB47E" transform="translate(159,174)"/>
<path d="M0 0 C2 2 2 2 2.265625 4.171875 C2.23528962 9.17721328 1.97526844 13.30873746 0 18 C-1.20220203 14.46905698 -0.79532349 11.87101018 -0.0625 8.25 C0.13214844 7.26515625 0.32679688 6.2803125 0.52734375 5.265625 C0.68332031 4.51796875 0.83929688 3.7703125 1 3 C-0.64696604 3.4752588 -2.29254728 3.95531891 -3.9375 4.4375 C-5.31228516 4.83775391 -5.31228516 4.83775391 -6.71484375 5.24609375 C-8.9402493 5.79026051 -8.9402493 5.79026051 -10 7 C-11.670625 7.2165625 -11.670625 7.2165625 -13.375 7.4375 C-17.08510547 7.75300217 -17.08510547 7.75300217 -20 10 C-22.1875 9.625 -22.1875 9.625 -24 9 C-20.94516699 7.4840072 -17.88002094 5.99013052 -14.8125 4.5 C-13.94818359 4.07074219 -13.08386719 3.64148438 -12.19335938 3.19921875 C-11.35224609 2.79316406 -10.51113281 2.38710937 -9.64453125 1.96875 C-8.48981323 1.40317383 -8.48981323 1.40317383 -7.31176758 0.82617188 C-4.68618109 -0.11215157 -2.76802715 -0.29408299 0 0 Z " fill="#581947" transform="translate(210,183)"/>
<path d="M0 0 C0.495 0.99 0.495 0.99 1 2 C0.05125 1.95875 -0.8975 1.9175 -1.875 1.875 C-5.10244856 1.65026182 -5.10244856 1.65026182 -7 4 C-7.99 4 -8.98 4 -10 4 C-10.33 5.65 -10.66 7.3 -11 9 C-14.75 10.125 -14.75 10.125 -17 9 C-17.495 9.7425 -17.99 10.485 -18.5 11.25 C-21.55756432 14.61332075 -24.74999501 16.43788318 -29 18 C-29.99 18 -30.98 18 -32 18 C-25.20381835 11.74084633 -18.14469981 5.34479482 -9 3 C-9 2.34 -9 1.68 -9 1 C-5.68042385 -1.0901035 -3.73206842 -1.21040057 0 0 Z " fill="#D04FC6" transform="translate(133,173)"/>
<path d="M0 0 C-0.44116296 5.22429826 -2.05698613 7.85865098 -5.4375 11.8125 C-6.24058594 12.76769531 -7.04367187 13.72289062 -7.87109375 14.70703125 C-10 17 -10 17 -12 18 C-11.44271087 14.65626525 -10.64826111 11.96687001 -9 9 C-8.01 9 -7.02 9 -6 9 C-5.67 7.02 -5.34 5.04 -5 3 C-10.94 3.495 -10.94 3.495 -17 4 C-14.06030946 2.04020631 -12.44977414 1.51679931 -9.0625 0.875 C-8.20785156 0.70742187 -7.35320312 0.53984375 -6.47265625 0.3671875 C-4 0 -4 0 0 0 Z " fill="#551845" transform="translate(327,166)"/>
<path d="M0 0 C4.29333342 3.97133342 4.67422604 9.69144216 5.5 15.3125 C5.5 16.3025 5.5 17.2925 5.5 18.3125 C4.84 18.3125 4.18 18.3125 3.5 18.3125 C3.16048381 16.75133181 2.82867456 15.18848662 2.5 13.625 C2.314375 12.75488281 2.12875 11.88476562 1.9375 10.98828125 C1.51027953 8.37537036 1.42383799 5.95436962 1.5 3.3125 C-1.92232972 2.17172343 -4.58673217 2.21434883 -8.1875 2.25 C-9.36699219 2.25902344 -10.54648438 2.26804688 -11.76171875 2.27734375 C-12.66535156 2.28894531 -13.56898438 2.30054688 -14.5 2.3125 C-14.17 3.3025 -13.84 4.2925 -13.5 5.3125 C-12.84 5.6425 -12.18 5.9725 -11.5 6.3125 C-12.49 6.6425 -13.48 6.9725 -14.5 7.3125 C-15.16 6.6525 -15.82 5.9925 -16.5 5.3125 C-19.07061311 4.66482207 -19.07061311 4.66482207 -21.5 4.3125 C-15.59101726 -2.18738102 -8.12611451 -1.59620106 0 0 Z " fill="#591F39" transform="translate(227.5,175.6875)"/>
<path d="M0 0 C0.99 0.33 1.98 0.66 3 1 C-5.79241346 7.59431009 -14.9754371 7.66666093 -25.5625 6.625 C-26.696875 6.41875 -27.83125 6.2125 -29 6 C-29.33 5.34 -29.66 4.68 -30 4 C-29.16190796 3.970271 -29.16190796 3.970271 -28.30688477 3.93994141 C-25.72502582 3.8434781 -23.14384608 3.73430188 -20.5625 3.625 C-19.68400391 3.5940625 -18.80550781 3.563125 -17.90039062 3.53125 C-8.34023619 3.54419386 -8.34023619 3.54419386 0 0 Z " fill="#E9C663" transform="translate(307,323)"/>
<path d="M0 0 C0.6875 1.5625 0.6875 1.5625 1 4 C0.2522201 5.72314498 -0.50058267 7.44488874 -1.30859375 9.140625 C-2.20694122 11.22589263 -2.20694122 11.22589263 -2 14.5625 C-2 18.64516548 -3.04582533 20.44061042 -5 24 C-6.04874571 26.56360062 -7.04566584 29.1434878 -8.03515625 31.73046875 C-9 34 -9 34 -11 37 C-10.31697126 31.58609855 -9.22293698 26.36322421 -7.9375 21.0625 C-7.75123047 20.28326172 -7.56496094 19.50402344 -7.37304688 18.70117188 C-6.91818991 16.80010303 -6.4594938 14.89995343 -6 13 C-5.34 13 -4.68 13 -4 13 C-3.87882812 12.39671875 -3.75765625 11.7934375 -3.6328125 11.171875 C-3.38144531 9.97304688 -3.38144531 9.97304688 -3.125 8.75 C-2.96257813 7.96109375 -2.80015625 7.1721875 -2.6328125 6.359375 C-2.00849925 4.03168856 -1.15161458 2.10968048 0 0 Z " fill="#D04ECE" transform="translate(48,266)"/>
<path d="M0 0 C4.11018964 3.35973367 7.94640442 6.60282237 11 11 C11 11.66 11 12.32 11 13 C10.34 13 9.68 13 9 13 C9 13.99 9 14.98 9 16 C7.125 15.3125 7.125 15.3125 5 14 C4.27840576 12.35636866 3.60648579 10.68949614 3 9 C2.34 8.67 1.68 8.34 1 8 C1 7.34 1 6.68 1 6 C0.34 6 -0.32 6 -1 6 C-1.33 5.01 -1.66 4.02 -2 3 C-1.34 2.01 -0.68 1.02 0 0 Z " fill="#D33BEF" transform="translate(137,108)"/>
<path d="M0 0 C3.20878901 3.90329402 3.94276458 7.12045189 5 12 C2.525 11.01 2.525 11.01 0 10 C-0.33 10.99 -0.66 11.98 -1 13 C-2.87239624 15.127723 -4.60277126 16.40184751 -7 18 C-6.44380331 13.3110507 -5.11817327 9.80075733 -2.9375 5.625 C-2.38964844 4.56539062 -1.84179688 3.50578125 -1.27734375 2.4140625 C-0.85582031 1.61742187 -0.43429688 0.82078125 0 0 Z M-1 5 C-0.67 5.99 -0.34 6.98 0 8 C0.99 8 1.98 8 3 8 C2.67 7.01 2.34 6.02 2 5 C1.01 5 0.02 5 -1 5 Z " fill="#D443E4" transform="translate(56,248)"/>
<path d="M0 0 C1.9375 0.8125 1.9375 0.8125 4 2 C4.33 2.99 4.66 3.98 5 5 C6.99541868 5.68025637 8.99617991 6.34490497 11 7 C13.875 8.9375 13.875 8.9375 16 11 C16 11.99 16 12.98 16 14 C17.32 14.66 18.64 15.32 20 16 C20 16.66 20 17.32 20 18 C11.94016997 14.25208807 5.33528984 8.03366184 0 1 C0 0.67 0 0.34 0 0 Z " fill="#E1CD57" transform="translate(234,98)"/>
<path d="M0 0 C0.33 0 0.66 0 1 0 C1.33 1.65 1.66 3.3 2 5 C2.33 5 2.66 5 3 5 C3.05819424 8.24992446 3.09366116 11.49971435 3.125 14.75 C3.14175781 15.67039062 3.15851563 16.59078125 3.17578125 17.5390625 C3.18222656 18.42851562 3.18867188 19.31796875 3.1953125 20.234375 C3.20578613 21.05131836 3.21625977 21.86826172 3.22705078 22.70996094 C2.97829916 25.21887518 2.25700129 26.83395625 1 29 C0.15156826 22.43300475 -0.12561146 16.05449407 -0.0625 9.4375 C-0.05798828 8.52419922 -0.05347656 7.61089844 -0.04882812 6.66992188 C-0.0371874 4.44654262 -0.02083851 2.22330879 0 0 Z " fill="#EAC571" transform="translate(305,272)"/>
<path d="M0 0 C4.90406787 1.46741876 9.20535074 3.52130678 13.6875 5.9375 C14.35072266 6.28490234 15.01394531 6.63230469 15.69726562 6.99023438 C18.85690239 8.67982866 21.67973165 10.22784418 24 13 C23.01 13.33 22.02 13.66 21 14 C20.67 13.34 20.34 12.68 20 12 C18.865625 11.690625 17.73125 11.38125 16.5625 11.0625 C13 10 13 10 11 7 C7.93443402 6.26656572 7.93443402 6.26656572 5 6 C5 5.67 5 5.34 5 5 C2.03 4.505 2.03 4.505 -1 4 C-0.67 2.68 -0.34 1.36 0 0 Z " fill="#571A40" transform="translate(262,225)"/>
<path d="M0 0 C-0.7425 1.0828125 -0.7425 1.0828125 -1.5 2.1875 C-5.14579634 9.44453538 -3.35943617 18.6071 -1 26 C-1.375 28.4375 -1.375 28.4375 -2 30 C-2 29.01 -2 28.02 -2 27 C-2.66 27 -3.32 27 -4 27 C-4.144375 25.865625 -4.28875 24.73125 -4.4375 23.5625 C-4.61171478 20.19222799 -4.61171478 20.19222799 -6 19 C-6.12583966 17.065581 -6.17578009 15.12597237 -6.1875 13.1875 C-6.20167969 12.12917969 -6.21585938 11.07085937 -6.23046875 9.98046875 C-6.00615034 7.0795374 -5.50196021 5.45181647 -4 3 C-4.99 3 -5.98 3 -7 3 C-7 2.34 -7 1.68 -7 1 C-4.53721199 -0.231394 -2.7204945 -0.07159196 0 0 Z " fill="#CC4CC4" transform="translate(135,217)"/>
<path d="M0 0 C2.1519437 3.22791555 2.20086443 4.28400809 2 8 C2.66 8 3.32 8 4 8 C4.33 9.98 4.66 11.96 5 14 C5.66 14 6.32 14 7 14 C7.50435694 15.9363704 8.00333874 17.87414146 8.5 19.8125 C8.7784375 20.89144531 9.056875 21.97039062 9.34375 23.08203125 C10 26 10 26 10 29 C9.34 29 8.68 29 8 29 C6.6512107 25.29710704 5.32376389 21.58690549 4 17.875 C3.6184375 16.82828125 3.236875 15.7815625 2.84375 14.703125 C2.4828125 13.68476562 2.121875 12.66640625 1.75 11.6171875 C1.41484375 10.68503418 1.0796875 9.75288086 0.734375 8.79248047 C-0.06385027 5.75720765 -0.12903054 3.12495828 0 0 Z " fill="#EAC96F" transform="translate(57,50)"/>
<path d="M0 0 C3.11158582 2.90597442 5.37457114 5.89138279 7.625 9.5 C8.51058594 10.90765625 8.51058594 10.90765625 9.4140625 12.34375 C10.71884372 14.52909785 11.90619421 16.70409081 13 19 C11.35 18.67 9.7 18.34 8 18 C8 17.01 8 16.02 8 15 C7.34 15 6.68 15 6 15 C4.63823419 13.01924973 3.30406884 11.01920337 2 9 C1.67 9 1.34 9 1 9 C0.67 6.03 0.34 3.06 0 0 Z " fill="#D24BCE" transform="translate(198,265)"/>
<path d="M0 0 C2.50590149 1.25295074 2.76590438 2.24683185 3.9375 4.75 C5.1167129 7.2369866 6.26572414 9.39400477 7.8125 11.6875 C9.29053568 14.56578 8.95168815 15.97190134 8 19 C7.3503125 18.0409375 7.3503125 18.0409375 6.6875 17.0625 C5.08760823 14.73253997 5.08760823 14.73253997 2 14 C2.33 11.69 2.66 9.38 3 7 C1.35 7.33 -0.3 7.66 -2 8 C-1.34 5.36 -0.68 2.72 0 0 Z " fill="#D245D2" transform="translate(136,250)"/>
<path d="M0 0 C0.99 0 1.98 0 3 0 C3.33 0.99 3.66 1.98 4 3 C-0.29 7.29 -4.58 11.58 -9 16 C-9.66 15.01 -10.32 14.02 -11 13 C-10.01 13 -9.02 13 -8 13 C-8 12.01 -8 11.02 -8 10 C-7.34 10 -6.68 10 -6 10 C-6.33 9.01 -6.66 8.02 -7 7 C-6.67 6.01 -6.34 5.02 -6 4 C-4.68 4.33 -3.36 4.66 -2 5 C-2 4.34 -2 3.68 -2 3 C-1.34 2.67 -0.68 2.34 0 2 C0 1.34 0 0.68 0 0 Z " fill="#5C1E47" transform="translate(300,194)"/>
<path d="M0 0 C1.89313266 2.83969899 2.92755305 5.4834518 4.06640625 8.67578125 C5.46779387 12.16459143 7.2886125 15.41738117 9.109375 18.703125 C10 21 10 21 9 25 C8.34 22.36 7.68 19.72 7 17 C6.01 17 5.02 17 4 17 C-0.0333905 11.20200116 -0.50604984 6.98629919 0 0 Z " fill="#E3CB65" transform="translate(221,128)"/>
<path d="M0 0 C6.14227393 3.33437728 10.30105905 8.20791419 14.6875 13.5625 C15.45449219 14.49191406 16.22148438 15.42132813 17.01171875 16.37890625 C18.66325283 18.55607593 19.90541153 20.51229893 21 23 C20.21625 22.649375 19.4325 22.29875 18.625 21.9375 C17.75875 21.628125 16.8925 21.31875 16 21 C15.34 21.33 14.68 21.66 14 22 C14 21.01 14 20.02 14 19 C13.34 18.67 12.68 18.34 12 18 C11.60828247 16.34608154 11.27942455 14.67654729 11 13 C10.67 12.01 10.34 11.02 10 10 C9.1028125 9.566875 9.1028125 9.566875 8.1875 9.125 C5.3127387 7.64655133 3.95200216 5.53760281 2 3 C1.34 2.67 0.68 2.34 0 2 C0 1.34 0 0.68 0 0 Z " fill="#D259B7" transform="translate(77,40)"/>
<path d="M0 0 C4.59734387 0.47361624 6.62274688 2.10589979 9.8125 5.375 C10.60269531 6.16648438 11.39289063 6.95796875 12.20703125 7.7734375 C14 10 14 10 14 13 C10.33620697 11.42491141 7.70148695 9.15806427 4.75 6.5 C3.85796875 5.7059375 2.9659375 4.911875 2.046875 4.09375 C0 2 0 2 0 0 Z " fill="#EBC370" transform="translate(94,132)"/>
<path d="M0 0 C2.55542423 1.1357441 4.43077828 2.34872527 6.625 4.125 C8.75730599 6.2065481 8.75730599 6.2065481 11 6 C12.62514468 4.54166642 12.62514468 4.54166642 14 3 C14 5.31 14 7.62 14 10 C14.9075 10.45375 15.815 10.9075 16.75 11.375 C19.16666667 12.58333333 21.58333333 13.79166667 24 15 C22.32421875 15.68359375 22.32421875 15.68359375 20 16 C12.51227956 12.52145271 5.77524402 6.84654332 0 1 C0 0.67 0 0.34 0 0 Z " fill="#5A1E44" transform="translate(232,303)"/>
<path d="M0 0 C0.66 0 1.32 0 2 0 C2.26554687 0.89203125 2.53109375 1.7840625 2.8046875 2.703125 C3.15789062 3.87359375 3.51109375 5.0440625 3.875 6.25 C4.22304687 7.41015625 4.57109375 8.5703125 4.9296875 9.765625 C5.87440789 12.88994135 5.87440789 12.88994135 7.1328125 15.234375 C8 17 8 17 8 20 C8.66 20 9.32 20 10 20 C10 21.32 10 22.64 10 24 C10.99 24 11.98 24 13 24 C12.67 25.98 12.34 27.96 12 30 C9.80629464 27.26234922 8.29929299 24.69659445 6.9921875 21.4453125 C6.64542969 20.58292969 6.29867187 19.72054687 5.94140625 18.83203125 C5.58949219 17.93871094 5.23757812 17.04539062 4.875 16.125 C4.51535156 15.23941406 4.15570313 14.35382813 3.78515625 13.44140625 C2.00571409 8.96947483 0.52537847 4.82392961 0 0 Z " fill="#D14EC2" transform="translate(65,66)"/>
<path d="M0 0 C0.33 0.99 0.66 1.98 1 3 C-2.96 6.96 -6.92 10.92 -11 15 C-11 11.41322462 -10.98455394 9.05523986 -8.4765625 6.3671875 C-7.86554688 5.87476563 -7.25453125 5.38234375 -6.625 4.875 C-6.01914062 4.37742188 -5.41328125 3.87984375 -4.7890625 3.3671875 C-3.23853637 2.18228762 -1.62369643 1.08246429 0 0 Z " fill="#D9B966" transform="translate(317,184)"/>
<path d="M0 0 C0.33 0 0.66 0 1 0 C3.21462689 8.40371809 3.20705918 16.3725342 3 25 C0.03824877 24.38722388 -1.38058783 23.74627478 -4 22 C-2.35 21.67 -0.7 21.34 1 21 C1.04125 19.741875 1.0825 18.48375 1.125 17.1875 C1.15980469 16.12595703 1.15980469 16.12595703 1.1953125 15.04296875 C1.13254462 12.68640281 1.13254462 12.68640281 -1 10 C-1.125 7 -1.125 7 -1 4 C-1 3.01 -1 2.02 -1 1 C-0.67 0.67 -0.34 0.34 0 0 Z " fill="#B3C036" transform="translate(227,150)"/>
<path d="M0 0 C3.58397452 5.37596179 4.24573206 9.97620107 4.125 16.375 C4.10695312 17.62023437 4.08890625 18.86546875 4.0703125 20.1484375 C4.04710937 21.08945312 4.02390625 22.03046875 4 23 C3.67 23 3.34 23 3 23 C3 20.36 3 17.72 3 15 C1.35 14.67 -0.3 14.34 -2 14 C-2 13.01 -2 12.02 -2 11 C-1.01 11 -0.02 11 1 11 C0.67 7.37 0.34 3.74 0 0 Z " fill="#D34FCB" transform="translate(218,297)"/>
<path d="M0 0 C1.5625 1.8125 1.5625 1.8125 3 4 C2 7 2 7 -0.6640625 8.45703125 C-2.31535156 9.22080078 -2.31535156 9.22080078 -4 10 C-6.13446927 11.2126486 -8.25965239 12.4417953 -10.375 13.6875 C-11.43460938 14.31011719 -12.49421875 14.93273437 -13.5859375 15.57421875 C-14.78089844 16.27998047 -14.78089844 16.27998047 -16 17 C-16.33 16.34 -16.66 15.68 -17 15 C-16.36191406 14.67386719 -15.72382813 14.34773437 -15.06640625 14.01171875 C-14.24011719 13.57472656 -13.41382813 13.13773438 -12.5625 12.6875 C-11.73878906 12.25824219 -10.91507813 11.82898438 -10.06640625 11.38671875 C-7.69352356 10.09979113 -7.69352356 10.09979113 -7 7 C-6.21625 6.855625 -5.4325 6.71125 -4.625 6.5625 C-2.03578982 6.12201075 -2.03578982 6.12201075 0 5 C0 3.35 0 1.7 0 0 Z " fill="#CD4EC0" transform="translate(157,198)"/>
<path d="M0 0 C-3.9992689 3.87429175 -7.54150393 4.96128726 -13 5 C-16.02259645 4.7934872 -19.00455013 4.45070426 -22 4 C-22 3.67 -22 3.34 -22 3 C-20.86820313 2.79503906 -19.73640625 2.59007812 -18.5703125 2.37890625 C-17.08851239 2.10693028 -15.60674315 1.83478613 -14.125 1.5625 C-13.37863281 1.42779297 -12.63226563 1.29308594 -11.86328125 1.15429688 C-2.13885339 -0.64165602 -2.13885339 -0.64165602 0 0 Z " fill="#F1BB7B" transform="translate(70,321)"/>
<path d="M0 0 C3.2826932 1.49076434 5.93077441 3.38620321 8.75 5.625 C9.94882813 6.57246094 9.94882813 6.57246094 11.171875 7.5390625 C11.77515625 8.02117187 12.3784375 8.50328125 13 9 C12.67 9.66 12.34 10.32 12 11 C7.57054069 10.10041886 4.26945182 8.10597923 1 5 C0.0625 2.1875 0.0625 2.1875 0 0 Z " fill="#E7C573" transform="translate(233,306)"/>
<path d="M0 0 C0.33 0.66 0.66 1.32 1 2 C1.66 2 2.32 2 3 2 C4.625 3.375 4.625 3.375 6 5 C6 5.66 6 6.32 6 7 C5.01 7 4.02 7 3 7 C3.32742187 7.50015625 3.65484375 8.0003125 3.9921875 8.515625 C5.3723642 11.91792104 5.21362838 15.14350651 5.125 18.75 C5.11597656 19.44738281 5.10695312 20.14476562 5.09765625 20.86328125 C5.07419888 22.57566958 5.03833104 24.28788004 5 26 C4.67 26 4.34 26 4 26 C3.93941406 25.21753906 3.87882813 24.43507813 3.81640625 23.62890625 C3.73261719 22.61699219 3.64882812 21.60507812 3.5625 20.5625 C3.44068359 19.04849609 3.44068359 19.04849609 3.31640625 17.50390625 C3.26788532 15.06359221 3.26788532 15.06359221 2 14 C1.602507 11.65276034 1.25631277 9.29671452 0.9375 6.9375 C0.76089844 5.64714844 0.58429688 4.35679687 0.40234375 3.02734375 C0.26957031 2.02832031 0.13679687 1.02929688 0 0 Z " fill="#EDC861" transform="translate(219,292)"/>
<path d="M0 0 C0.33 0 0.66 0 1 0 C1.33 9.24 1.66 18.48 2 28 C1.34 28.33 0.68 28.66 0 29 C-1.101173 25.69648101 -1.03109831 23.48612828 -0.87890625 20.01953125 C-0.83056641 18.85615234 -0.78222656 17.69277344 -0.73242188 16.49414062 C-0.67634766 15.27919922 -0.62027344 14.06425781 -0.5625 12.8125 C-0.51029297 11.58595703 -0.45808594 10.35941406 -0.40429688 9.09570312 C-0.27451599 6.06354982 -0.13954569 3.03171706 0 0 Z " fill="#E5C670" transform="translate(232,160)"/>
<path d="M0 0 C4.19502841 3.08457971 8.39355591 6.42485879 11 11 C11.46536838 15.29262215 10.28258966 19.34785654 8 23 C7.375 21.25 7.375 21.25 7 19 C7.66666667 17.66666667 8.33333333 16.33333333 9 15 C8.70194993 12.80252869 8.70194993 12.80252869 8 11 C7.01 11 6.02 11 5 11 C4.35165346 9.730447 3.70642185 8.45930294 3.0625 7.1875 C2.70285156 6.47980469 2.34320313 5.77210938 1.97265625 5.04296875 C1 3 1 3 0 0 Z " fill="#CF53C1" transform="translate(157,132)"/>
<path d="M0 0 C3.35433109 0.94933899 6.69246505 1.89748835 10 3 C12.63804589 2.60602665 12.63804589 2.60602665 15 2 C15.99 3.485 15.99 3.485 17 5 C15.68 5.99 14.36 6.98 13 8 C11.01729088 7.04901734 9.03891621 6.08899297 7.0625 5.125 C5.96035156 4.59132812 4.85820312 4.05765625 3.72265625 3.5078125 C1 2 1 2 0 0 Z " fill="#561C41" transform="translate(260,219)"/>
<path d="M0 0 C6.45672625 -0.36547507 6.45672625 -0.36547507 8.71875 1.15625 C10.50895567 3.73239963 10.2969848 5.5854308 10.1875 8.6875 C10.16042969 9.68136719 10.13335937 10.67523438 10.10546875 11.69921875 C10.07066406 12.45847656 10.03585938 13.21773437 10 14 C9.34 14 8.68 14 8 14 C7.34 10.7 6.68 7.4 6 4 C4.02 3.34 2.04 2.68 0 2 C0 1.34 0 0.68 0 0 Z " fill="#EDC07B" transform="translate(205,181)"/>
<path d="M0 0 C1.32 0.33 2.64 0.66 4 1 C3.67 1.66 3.34 2.32 3 3 C2.34 3 1.68 3 1 3 C-2.53677723 6.53677723 -3.59496284 11.3364724 -5 16 C-6.5625 14.8125 -6.5625 14.8125 -8 13 C-7.84497278 8.82774566 -6.22195004 6.6744555 -3.4375 3.6875 C-2.79683594 2.99011719 -2.15617188 2.29273438 -1.49609375 1.57421875 C-1.00238281 1.05472656 -0.50867188 0.53523438 0 0 Z " fill="#CD4EC4" transform="translate(194,262)"/>
<path d="M0 0 C0 0.99 0 1.98 0 3 C-1.32 3.33 -2.64 3.66 -4 4 C-4 4.66 -4 5.32 -4 6 C-4.66 6 -5.32 6 -6 6 C-5.67 6.99 -5.34 7.98 -5 9 C-5.639375 9.350625 -6.27875 9.70125 -6.9375 10.0625 C-9.82163832 12.77184206 -9.7100822 15.15858911 -10 19 C-10.33 19 -10.66 19 -11 19 C-11.7814096 10.05720123 -11.7814096 10.05720123 -8.875 6.125 C-5.96437024 3.97366496 -3.06491902 1.92448404 0 0 Z " fill="#571D3E" transform="translate(145,215)"/>
<path d="M0 0 C-7.54057799 4.3986705 -15.56899488 6.07642116 -24 8 C-23.67 7.34 -23.34 6.68 -23 6 C-21.68 6 -20.36 6 -19 6 C-19 5.34 -19 4.68 -19 4 C-15.32586128 2.44477307 -11.67798336 1.29687775 -7.8125 0.3125 C-6.76707031 0.04050781 -5.72164062 -0.23148437 -4.64453125 -0.51171875 C-2 -1 -2 -1 0 0 Z " fill="#CD4CC4" transform="translate(88,313)"/>
<path d="M0 0 C3.3 0.99 6.6 1.98 10 3 C10 3.66 10 4.32 10 5 C13.39914975 3.86695008 14.05254451 2.87481525 16 0 C15.67 2.64 15.34 5.28 15 8 C9.04919104 6.80983821 3.998233 4.63795028 0 0 Z " fill="#D155BD" transform="translate(143,168)"/>
<path d="M0 0 C-0.1875 1.8125 -0.1875 1.8125 -1 4 C-4.77118547 7.01694837 -7.32243526 7 -12 7 C-14.34261608 8.37926773 -14.34261608 8.37926773 -16 10 C-14.9383717 6.94781864 -14.04970979 6.03078618 -11.25 4.296875 C-10.1775 3.78640625 -9.105 3.2759375 -8 2.75 C-6.9275 2.22921875 -5.855 1.7084375 -4.75 1.171875 C-2 0 -2 0 0 0 Z " fill="#EFA78A" transform="translate(150,210)"/>
<path d="M0 0 C8 6 8 6 10.09375 7.65625 C12.36546899 9.25762568 14.27162763 9.62105939 17 10 C16.34 10.66 15.68 11.32 15 12 C11.10112598 11.69219416 8.99072072 10.41187155 6 8 C5.319375 7.71125 4.63875 7.4225 3.9375 7.125 C1.31422947 5.60181066 0.39059339 3.64212743 -1 1 C-0.67 0.67 -0.34 0.34 0 0 Z " fill="#EBC56E" transform="translate(137,173)"/>
<path d="M0 0 C2.4375 0.375 2.4375 0.375 5 1 C5.33 1.66 5.66 2.32 6 3 C5.01 3.495 5.01 3.495 4 4 C4.66 5.65 5.32 7.3 6 9 C6.66 9 7.32 9 8 9 C11.22265625 14.2734375 11.22265625 14.2734375 12 16 C11.67 16.66 11.34 17.32 11 18 C9.53129443 16.13238675 8.07529779 14.25682812 6.625 12.375 C6.2125 11.85292969 5.8 11.33085938 5.375 10.79296875 C2.72812544 7.33495522 1.14642958 4.19517639 0 0 Z " fill="#D045CA" transform="translate(85,112)"/>
<path d="M0 0 C8.91 0.66 17.82 1.32 27 2 C27 2.33 27 2.66 27 3 C13.635 3.495 13.635 3.495 0 4 C0.66 3.34 1.32 2.68 2 2 C1.34 1.34 0.68 0.68 0 0 Z " fill="#CFA563" transform="translate(270,324)"/>
<path d="M0 0 C0.33 0 0.66 0 1 0 C0.36934845 5.7809725 -0.65155132 11.3443706 -2 17 C-2.66 17 -3.32 17 -4 17 C-4.33 18.32 -4.66 19.64 -5 21 C-3.80974478 5.71461717 -3.80974478 5.71461717 0 0 Z " fill="#E7CB6E" transform="translate(36,292)"/>
<path d="M0 0 C-1 2 -1 2 -3.04296875 3.1171875 C-6.82802707 4.24720491 -10.40553058 4.21577856 -14.3125 4.125 C-15.05306641 4.11597656 -15.79363281 4.10695313 -16.55664062 4.09765625 C-18.37123467 4.07424213 -20.18566071 4.03837615 -22 4 C-22 3.67 -22 3.34 -22 3 C-15.565 2.505 -15.565 2.505 -9 2 C-9 1.34 -9 0.68 -9 0 C-5.62182575 -0.84454356 -3.32534757 -1.10844919 0 0 Z " fill="#531541" transform="translate(306,322)"/>
<path d="M0 0 C1.16161779 2.86578759 0.9946154 4.01630163 0.00390625 7.015625 C-0.70958984 8.61664063 -0.70958984 8.61664063 -1.4375 10.25 C-1.91058594 11.32765625 -2.38367187 12.4053125 -2.87109375 13.515625 C-3.24363281 14.33546875 -3.61617187 15.1553125 -4 16 C-4.99 16 -5.98 16 -7 16 C-6.01 12.7 -5.02 9.4 -4 6 C-3.34 6 -2.68 6 -2 6 C-1.34 4.02 -0.68 2.04 0 0 Z " fill="#EBC96E" transform="translate(47,261)"/>
<path d="M0 0 C-6.55592185 4.37061456 -13.59683302 3.23386116 -21 2 C-21 1.67 -21 1.34 -21 1 C-18.62625224 0.63457573 -16.25173828 0.28243861 -13.875 -0.0625 C-12.87726563 -0.2181543 -12.87726563 -0.2181543 -11.859375 -0.37695312 C-7.65885188 -0.97408631 -4.13930366 -0.92199443 0 0 Z " fill="#D9B067" transform="translate(182,273)"/>
<path d="M0 0 C-2.40689803 2.72675159 -4.92471023 4.11966596 -8.1875 5.6875 C-9.53908203 6.34298828 -9.53908203 6.34298828 -10.91796875 7.01171875 C-11.60503906 7.33785156 -12.29210937 7.66398438 -13 8 C-12.67 7.01 -12.34 6.02 -12 5 C-11.01 5 -10.02 5 -9 5 C-9 4.34 -9 3.68 -9 3 C-8.34 3 -7.68 3 -7 3 C-7 2.34 -7 1.68 -7 1 C-7.66 1 -8.32 1 -9 1 C-9 0.34 -9 -0.32 -9 -1 C-5.79937313 -2.60031344 -3.27728194 -1.03173691 0 0 Z " fill="#ACBE33" transform="translate(185,189)"/>
<path d="M0 0 C0.33 0.66 0.66 1.32 1 2 C0.05125 1.95875 -0.8975 1.9175 -1.875 1.875 C-5.10244856 1.65026182 -5.10244856 1.65026182 -7 4 C-7.99 4 -8.98 4 -10 4 C-10.33 5.65 -10.66 7.3 -11 9 C-12.32 9.33 -13.64 9.66 -15 10 C-14.67 8.68 -14.34 7.36 -14 6 C-13.01 6 -12.02 6 -11 6 C-11 5.01 -11 4.02 -11 3 C-10.34 3 -9.68 3 -9 3 C-9 2.34 -9 1.68 -9 1 C-5.68042385 -1.0901035 -3.73206842 -1.21040057 0 0 Z " fill="#D044D5" transform="translate(133,173)"/>
<path d="M0 0 C2.68984042 2.68984042 3.42577118 5.77413642 4.5625 9.3125 C4.78357422 9.97701172 5.00464844 10.64152344 5.23242188 11.32617188 C6.3883743 14.8568906 7.36954544 18.33769657 8 22 C3.29439757 17.45125099 1.74949825 14.53134192 1 8 C0.81379067 6.5206703 0.62630854 5.04150021 0.4375 3.5625 C0.293125 2.386875 0.14875 1.21125 0 0 Z " fill="#F3B18B" transform="translate(64,66)"/>
<path d="M0 0 C0.66 0 1.32 0 2 0 C1.34 6.93 0.68 13.86 0 21 C-0.66 20.67 -1.32 20.34 -2 20 C-2 14.72 -2 9.44 -2 4 C-1.34 4 -0.68 4 0 4 C0 2.68 0 1.36 0 0 Z " fill="#E6D053" transform="translate(159,174)"/>
<path d="M0 0 C-0.33 1.98 -0.66 3.96 -1 6 C-1.66 5.34 -2.32 4.68 -3 4 C-6.35744112 3.75622117 -6.35744112 3.75622117 -10.125 3.875 C-11.40632813 3.89304688 -12.68765625 3.91109375 -14.0078125 3.9296875 C-14.99523437 3.95289063 -15.98265625 3.97609375 -17 4 C-14.06030946 2.04020631 -12.44977414 1.51679931 -9.0625 0.875 C-8.20785156 0.70742187 -7.35320312 0.53984375 -6.47265625 0.3671875 C-4 0 -4 0 0 0 Z " fill="#5F1F3D" transform="translate(327,166)"/>
<path d="M0 0 C2.46800047 1.15173355 4.04783565 2.04783565 6 4 C6.33 3.34 6.66 2.68 7 2 C7.66 2 8.32 2 9 2 C9.103125 2.763125 9.20625 3.52625 9.3125 4.3125 C10.04364039 7.17059424 10.76951913 8.15742885 13 10 C7.19816234 8.95566922 4.72738112 7.15631937 1.06640625 2.55859375 C0 1 0 1 0 0 Z " fill="#581E42" transform="translate(149,264)"/>
<path d="M0 0 C0.66 1.32 1.32 2.64 2 4 C3.32 4 4.64 4 6 4 C6 4.66 6 5.32 6 6 C6.99 6 7.98 6 9 6 C9 6.66 9 7.32 9 8 C6 10 6 10 3 10 C0 3.375 0 3.375 0 0 Z " fill="#B2C135" transform="translate(159,192)"/>
<path d="M0 0 C2.96404505 2.80804268 5.44499019 5.18315774 7 9 C6.34 9 5.68 9 5 9 C5 9.99 5 10.98 5 12 C3.68 11.34 2.36 10.68 1 10 C1.020625 8.906875 1.04125 7.81375 1.0625 6.6875 C1.18544452 3.05615809 1.18544452 3.05615809 0 0 Z " fill="#D54AD7" transform="translate(141,112)"/>
<path d="M0 0 C6.71528903 3.29659643 6.71528903 3.29659643 8.0625 6.625 C8 9 8 9 6 11 C5.01 11 4.02 11 3 11 C3.0928125 9.329375 3.0928125 9.329375 3.1875 7.625 C3.125625 6.42875 3.06375 5.2325 3 4 C2.01 3.34 1.02 2.68 0 2 C0 1.34 0 0.68 0 0 Z " fill="#E3CE6D" transform="translate(250,110)"/>
<path d="M0 0 C0.66 0 1.32 0 2 0 C2.39259552 4.44941586 1.3498442 7.22346468 -1 11 C-3.109375 12.17578125 -3.109375 12.17578125 -5 13 C-4.54554036 11.58208592 -4.08625056 10.16571954 -3.625 8.75 C-3.24214844 7.56664063 -3.24214844 7.56664063 -2.8515625 6.359375 C-2.04826333 4.13372042 -1.10288338 2.09068328 0 0 Z " fill="#B0BF32" transform="translate(197,108)"/>
<path d="M0 0 C3 3 6 6 9 9 C8.67 9.66 8.34 10.32 8 11 C7.34 10.34 6.68 9.68 6 9 C3.42938689 8.35232207 3.42938689 8.35232207 1 8 C0.02391783 5.07175348 -0.08226668 3.04386724 0 0 Z " fill="#D249CD" transform="translate(128,97)"/>
<path d="M0 0 C0.66 0.33 1.32 0.66 2 1 C0.64905419 5.05283743 -1.37995418 5.87056128 -5 8 C-7.375 8.75 -7.375 8.75 -9 9 C-7.48328036 4.44984107 -3.83108947 2.49942736 0 0 Z " fill="#E4CC6C" transform="translate(207,94)"/>
<path d="M0 0 C0.99 1.32 1.98 2.64 3 4 C1.9280096 7.4541913 0.90283569 8.05218083 -2.375 9.8125 C-6.9901168 11.32434861 -6.9901168 11.32434861 -10 10 C-9.071875 9.5875 -8.14375 9.175 -7.1875 8.75 C-2.97809685 6.43895513 -1.50099423 4.50298268 0 0 Z " fill="#DEB470" transform="translate(310,315)"/>
<path d="M0 0 C0.99 0 1.98 0 3 0 C3.33 0.99 3.66 1.98 4 3 C6.01508358 3.73323796 6.01508358 3.73323796 8 4 C7.67 5.32 7.34 6.64 7 8 C7.99 8.33 8.98 8.66 10 9 C9.01 10.485 9.01 10.485 8 12 C6.66382103 10.18959679 5.33112616 8.3766216 4 6.5625 C3.2575 5.55316406 2.515 4.54382813 1.75 3.50390625 C0 1 0 1 0 0 Z " fill="#581C40" transform="translate(212,279)"/>
<path d="M0 0 C3.94727588 -0.17942163 6.5980513 -0.09350689 10 2 C4.375 6 4.375 6 1 6 C1 5.34 1 4.68 1 4 C0.34 3.67 -0.32 3.34 -1 3 C-0.67 2.01 -0.34 1.02 0 0 Z " fill="#55154B" transform="translate(177,265)"/>
<path d="M0 0 C-0.21484375 1.890625 -0.21484375 1.890625 -1 4 C-3.06640625 5.046875 -3.06640625 5.046875 -5.5625 5.75 C-6.80193359 6.11351562 -6.80193359 6.11351562 -8.06640625 6.484375 C-9.02353516 6.73960937 -9.02353516 6.73960937 -10 7 C-10 7.66 -10 8.32 -10 9 C-10.99 9.33 -11.98 9.66 -13 10 C-11.54845769 6.37114422 -9.7599362 4.84567327 -6.5 2.75 C-5.30890625 1.96882812 -5.30890625 1.96882812 -4.09375 1.171875 C-2 0 -2 0 0 0 Z " fill="#ECC86E" transform="translate(120,174)"/>
<path d="M0 0 C0.66 0 1.32 0 2 0 C2.66 0.99 3.32 1.98 4 3 C5.66014616 3.36442233 7.32706064 3.69972883 9 4 C9.33 4.66 9.66 5.32 10 6 C10.99 6.66 11.98 7.32 13 8 C7.81849474 8.61475486 7.81849474 8.61475486 5 8 C2.79559174 5.95791159 1.3372998 3.68102892 0 1 C0 0.67 0 0.34 0 0 Z " fill="#CF4BCC" transform="translate(207,314)"/>
<path d="M0 0 C1.25799957 3.82398545 0.41113677 5.52730462 -1.3046875 9.13671875 C-2.39048751 12.04641878 -2.05692626 14.92598174 -2 18 C-3 20.9375 -3 20.9375 -4 23 C-4.33 23 -4.66 23 -5 23 C-4.73559871 14.56559869 -3.70088212 7.62553851 0 0 Z " fill="#CD42DA" transform="translate(48,266)"/>
<path d="M0 0 C0.66 0 1.32 0 2 0 C2 1.32 2 2.64 2 4 C3.32 4.66 4.64 5.32 6 6 C6 8.64 6 11.28 6 14 C2.59801074 9.95001278 0 5.36373351 0 0 Z " fill="#D049CE" transform="translate(189,278)"/>
<path d="M0 0 C4.03520597 1.58962659 8.01811282 3.28232318 12 5 C12 6.65 12 8.3 12 10 C3.55353075 3.84965831 3.55353075 3.84965831 0 0 Z " fill="#E8C278" transform="translate(279,232)"/>
<path d="M0 0 C0.33 0 0.66 0 1 0 C1.85330338 5.83475015 2.48351814 10.44860651 0 16 C-0.99 15.01 -1.98 14.02 -3 13 C-2.690625 12.154375 -2.38125 11.30875 -2.0625 10.4375 C-0.98461179 6.9502146 -0.43418696 3.61822465 0 0 Z " fill="#DEB16D" transform="translate(212,188)"/>
<path d="M0 0 C2.375 -0.125 2.375 -0.125 5 0 C7 2 7 2 7.265625 4.171875 C7.23528962 9.17721328 6.97526844 13.30873746 5 18 C3.79779797 14.46905698 4.20467651 11.87101018 4.9375 8.25 C5.13214844 7.26515625 5.32679688 6.2803125 5.52734375 5.265625 C5.76130859 4.14414063 5.76130859 4.14414063 6 3 C5.01 3.33 4.02 3.66 3 4 C2.01 2.68 1.02 1.36 0 0 Z " fill="#642939" transform="translate(205,183)"/>
<path d="M0 0 C2 3 2 3 1.625 5.6875 C1.41875 6.450625 1.2125 7.21375 1 8 C0.67 8 0.34 8 0 8 C-0.33 10.64 -0.66 13.28 -1 16 C-1.66 15.67 -2.32 15.34 -3 15 C-2.22095672 4.44191344 -2.22095672 4.44191344 0 0 Z " fill="#D23CE5" transform="translate(38,300)"/>
<path d="M0 0 C0.598125 0.165 1.19625 0.33 1.8125 0.5 C4.11344336 1.1114124 4.11344336 1.1114124 7 1 C5.56542672 1.9834496 4.12722594 2.96160921 2.6875 3.9375 C1.88699219 4.48277344 1.08648437 5.02804687 0.26171875 5.58984375 C-2 7 -2 7 -5 8 C-5 7.34 -5 6.68 -5 6 C-4.34 6 -3.68 6 -3 6 C-3 5.34 -3 4.68 -3 4 C-2.34 4 -1.68 4 -1 4 C-0.67 2.68 -0.34 1.36 0 0 Z " fill="#D045D4" transform="translate(114,293)"/>
<path d="M0 0 C1.32 0.33 2.64 0.66 4 1 C4.625 3.3125 4.625 3.3125 5 6 C4.01 7.485 4.01 7.485 3 9 C0.90250005 6.64031256 0.03094296 5.45383006 -0.1875 2.25 C-0.125625 1.5075 -0.06375 0.765 0 0 Z " fill="#52154C" transform="translate(199,256)"/>
<path d="M0 0 C1 3 1 3 0 7 C-2.97 6.67 -5.94 6.34 -9 6 C-6.11912454 3.59927045 -3.43595166 1.52708963 0 0 Z " fill="#591C48" transform="translate(156,209)"/>
<path d="M0 0 C1.32 0 2.64 0 4 0 C5.04625409 1.29735507 6.04701223 2.63266972 7 4 C7.99 4.33 8.98 4.66 10 5 C10 6.32 10 7.64 10 9 C6.78956118 7.61811547 4.95063635 6.07578097 2.75 3.375 C2.22921875 2.74335938 1.7084375 2.11171875 1.171875 1.4609375 C0.78515625 0.97882813 0.3984375 0.49671875 0 0 Z " fill="#5E2341" transform="translate(243,205)"/>
<path d="M0 0 C1.11375 0.598125 2.2275 1.19625 3.375 1.8125 C4.00148438 2.14894531 4.62796875 2.48539063 5.2734375 2.83203125 C7 4 7 4 9 7 C6.8125 7.3125 6.8125 7.3125 4 7 C1.1875 4.5 1.1875 4.5 -1 2 C-0.67 1.34 -0.34 0.68 0 0 Z " fill="#EFB67E" transform="translate(108,143)"/>
<path d="M0 0 C-2.63904371 1.41377341 -5.07120629 2.37240135 -8 3 C-8 3.66 -8 4.32 -8 5 C-9.65 5.66 -11.3 6.32 -13 7 C-12.67 5.35 -12.34 3.7 -12 2 C-7.8803623 0.70756464 -4.33168317 -0.26252625 0 0 Z " fill="#F0B183" transform="translate(132,171)"/>
<path d="M0 0 C4.29951803 1.59241408 6.39671947 4.35540725 9 8 C8.67 8.99 8.34 9.98 8 11 C7.62875 10.0409375 7.62875 10.0409375 7.25 9.0625 C6.8375 8.381875 6.425 7.70125 6 7 C5.34 6.87625 4.68 6.7525 4 6.625 C3.34 6.41875 2.68 6.2125 2 6 C0.75 2.9375 0.75 2.9375 0 0 Z " fill="#ECC86E" transform="translate(115,78)"/>
<path d="M0 0 C1.08667969 0.01804688 2.17335937 0.03609375 3.29296875 0.0546875 C4.54013672 0.08949219 4.54013672 0.08949219 5.8125 0.125 C5.8125 0.455 5.8125 0.785 5.8125 1.125 C4.36617187 1.43244141 4.36617187 1.43244141 2.890625 1.74609375 C1.62734375 2.01550781 0.3640625 2.28492188 -0.9375 2.5625 C-2.19046875 2.82933594 -3.4434375 3.09617188 -4.734375 3.37109375 C-7.23307085 3.9166235 -9.71303101 4.48138812 -12.1875 5.125 C-8.24347843 0.99316788 -5.73324527 -0.1232956 0 0 Z " fill="#DCCE4D" transform="translate(217.1875,171.875)"/>
<path d="M0 0 C5.34150613 0.17513135 5.34150613 0.17513135 8 1 C9.9375 3.9375 9.9375 3.9375 11 7 C11.33 7.66 11.66 8.32 12 9 C8.98472262 7.59422879 6.4052059 5.93873852 3.75 3.9375 C3.04359375 3.41027344 2.3371875 2.88304687 1.609375 2.33984375 C1.07828125 1.89769531 0.5471875 1.45554688 0 1 C0 0.67 0 0.34 0 0 Z " fill="#D54FC6" transform="translate(119,151)"/>
<path d="M0 0 C-4.95 2.31 -9.9 4.62 -15 7 C-15.33 6.34 -15.66 5.68 -16 5 C-13.69 4.34 -11.38 3.68 -9 3 C-9 2.34 -9 1.68 -9 1 C-3.375 -1.125 -3.375 -1.125 0 0 Z " fill="#E6BB72" transform="translate(204,184)"/>
<path d="M0 0 C3.057952 1.73559438 5.63379989 3.38472619 8 6 C7.67 6.66 7.34 7.32 7 8 C6.38125 7.649375 5.7625 7.29875 5.125 6.9375 C4.073125 6.4734375 4.073125 6.4734375 3 6 C2.01 6.495 2.01 6.495 1 7 C1 6.01 1 5.02 1 4 C0.34 3.67 -0.32 3.34 -1 3 C-0.67 2.01 -0.34 1.02 0 0 Z " fill="#D247D2" transform="translate(90,55)"/>
<path d="M0 0 C0.66 0 1.32 0 2 0 C2.33 4.62 2.66 9.24 3 14 C1 13 1 13 0 10 C-0.06802967 8.27204648 -0.08495645 6.54164635 -0.0625 4.8125 C-0.05347656 3.91144531 -0.04445313 3.01039063 -0.03515625 2.08203125 C-0.02355469 1.39496094 -0.01195312 0.70789063 0 0 Z " fill="#D9AF66" transform="translate(304,292)"/>
<path d="M0 0 C0.66 0 1.32 0 2 0 C1.38461538 6.52307692 1.38461538 6.52307692 -0.5625 8.9375 C-1.036875 9.288125 -1.51125 9.63875 -2 10 C-2.79198196 7.14886495 -3.21481122 5.55237171 -2.125 2.75 C-1 1 -1 1 0 0 Z " fill="#D9BA66" transform="translate(329,165)"/>
<path d="M0 0 C3.7952131 1.49097658 5.61042731 3.75700849 8 7 C7.01 7.495 7.01 7.495 6 8 C6 7.34 6 6.68 6 6 C4.35 5.67 2.7 5.34 1 5 C0.67 3.35 0.34 1.7 0 0 Z " fill="#EEC372" transform="translate(131,97)"/>
<path d="M0 0 C2.3125 -0.25 2.3125 -0.25 5 0 C6.8125 1.8125 6.8125 1.8125 8 4 C8 4.99 8 5.98 8 7 C6.0625 6.1875 6.0625 6.1875 4 5 C3.67 4.01 3.34 3.02 3 2 C2.01 1.67 1.02 1.34 0 1 C0 0.67 0 0.34 0 0 Z " fill="#F1B083" transform="translate(72,34)"/>
<path d="M0 0 C1.25541557 3.76624671 0.37061958 5.37188934 -1 9 C-1.66 9 -2.32 9 -3 9 C-3 10.65 -3 12.3 -3 14 C-4.5625 12.1875 -4.5625 12.1875 -6 10 C-5.67 9.01 -5.34 8.02 -5 7 C-4.01 7 -3.02 7 -2 7 C-1.855625 6.21625 -1.71125 5.4325 -1.5625 4.625 C-1 2 -1 2 0 0 Z " fill="#F5BA93" transform="translate(45,270)"/>
<path d="M0 0 C0.66 0.33 1.32 0.66 2 1 C-2.14285714 8.57142857 -2.14285714 8.57142857 -5 11 C-5 6.86356447 -4.84767359 6.30197567 -2.5 3.25 C-2.0359375 2.63640625 -1.571875 2.0228125 -1.09375 1.390625 C-0.55234375 0.70226562 -0.55234375 0.70226562 0 0 Z " fill="#EDC46C" transform="translate(145,269)"/>
<path d="M0 0 C2.97 0 5.94 0 9 0 C8.67 2.31 8.34 4.62 8 7 C7.7215625 6.0409375 7.7215625 6.0409375 7.4375 5.0625 C6.05753944 2.57873787 6.05753944 2.57873787 2.375 2.25 C1.26125 2.1675 0.1475 2.085 -1 2 C-0.67 1.34 -0.34 0.68 0 0 Z " fill="#E8CD76" transform="translate(321,163)"/>
<path d="M0 0 C0.33 0.66 0.66 1.32 1 2 C1.66 2 2.32 2 3 2 C4.25664978 4.90600261 5 6.79604584 5 10 C5.99 10.33 6.98 10.66 8 11 C7.01 11.33 6.02 11.66 5 12 C4.15556432 10.75747321 3.3248542 9.5056114 2.5 8.25 C1.80390625 7.20585938 1.80390625 7.20585938 1.09375 6.140625 C0 4 0 4 0 0 Z " fill="#E9C86B" transform="translate(82,112)"/>
<path d="M0 0 C0.66 0.33 1.32 0.66 2 1 C0.57277341 2.1998278 -0.86715776 3.3845576 -2.3125 4.5625 C-3.51326172 5.55443359 -3.51326172 5.55443359 -4.73828125 6.56640625 C-5.85783203 7.27603516 -5.85783203 7.27603516 -7 8 C-7.99 7.67 -8.98 7.34 -10 7 C-6.7 4.69 -3.4 2.38 0 0 Z " fill="#E7C263" transform="translate(125,292)"/>
<path d="M0 0 C0 3.11227195 -0.45627049 5.94152152 -1 9 C-2.65 9.33 -4.3 9.66 -6 10 C-4.6302836 6.00499382 -2.74277578 3.19990508 0 0 Z " fill="#D34ECA" transform="translate(73,221)"/>
<path d="M0 0 C1.051875 0.680625 1.051875 0.680625 2.125 1.375 C5.02984591 3.01686943 7.8139348 4.03677099 11 5 C11 5.33 11 5.66 11 6 C9.00045254 6.04254356 6.99958364 6.04080783 5 6 C4.67 5.67 4.34 5.34 4 5 C3.34 5.66 2.68 6.32 2 7 C1.34 4.69 0.68 2.38 0 0 Z " fill="#D145D2" transform="translate(141,181)"/>
<path d="M0 0 C0.99 0 1.98 0 3 0 C2.67 1.32 2.34 2.64 2 4 C-0.64 4.66 -3.28 5.32 -6 6 C-4 4 -2 2 0 0 Z " fill="#E2CF4E" transform="translate(201,179)"/>
<path d="M0 0 C1.670625 0.495 1.670625 0.495 3.375 1 C6.69459717 2.088643 6.69459717 2.088643 9 2 C9.99 3.98 10.98 5.96 12 8 C7.44328408 6.48109469 3.68276708 4.04597738 0 1 C0 0.67 0 0.34 0 0 Z " fill="#D04CC3" transform="translate(131,160)"/>
<path d="M0 0 C2 2 2 2 2 6 C2.66 6 3.32 6 4 6 C4.33 7.32 4.66 8.64 5 10 C3.68 10 2.36 10 1 10 C-0.60725635 6.78548731 -0.05748185 3.56387464 0 0 Z " fill="#F2B485" transform="translate(80,104)"/>
<path d="M0 0 C0.66 0.66 1.32 1.32 2 2 C-0.62315032 3.31157516 -2.23033436 2.89649988 -5.125 2.5625 C-6.03507812 2.46066406 -6.94515625 2.35882813 -7.8828125 2.25390625 C-8.58148438 2.17011719 -9.28015625 2.08632813 -10 2 C-6.69548487 -1.30451513 -4.29441934 -1.21124648 0 0 Z " fill="#ECB975" transform="translate(74,32)"/>
<path d="M0 0 C2.875 0.1875 2.875 0.1875 6 1 C7.375 3.5625 7.375 3.5625 8 6 C5.125 5.8125 5.125 5.8125 2 5 C0.625 2.4375 0.625 2.4375 0 0 Z " fill="#D33DDF" transform="translate(204,309)"/>
<path d="M0 0 C0 0.99 0 1.98 0 3 C-2.25 4.8125 -2.25 4.8125 -5 6 C-7.3125 5.1875 -7.3125 5.1875 -9 4 C-2.25 0 -2.25 0 0 0 Z " fill="#5C1C48" transform="translate(172,201)"/>
<path d="M0 0 C1.98 0 3.96 0 6 0 C5.34 0.66 4.68 1.32 4 2 C5.32 2.66 6.64 3.32 8 4 C6.02 4 4.04 4 2 4 C1.67 4.99 1.34 5.98 1 7 C0 2.25 0 2.25 0 0 Z " fill="#D4B15C" transform="translate(203,177)"/>
<path d="M0 0 C0.33 0 0.66 0 1 0 C0.64989059 8.19256018 0.64989059 8.19256018 -2.0625 11.5625 C-2.701875 12.036875 -3.34125 12.51125 -4 13 C-4.33 12.01 -4.66 11.02 -5 10 C-4.34 10 -3.68 10 -3 10 C-3 9.34 -3 8.68 -3 8 C-2.34 8 -1.68 8 -1 8 C-0.67 5.36 -0.34 2.72 0 0 Z " fill="#571C38" transform="translate(310,309)"/>
<path d="M0 0 C1.32 0 2.64 0 4 0 C4 0.66 4 1.32 4 2 C3.34 2 2.68 2 2 2 C1.34 3.32 0.68 4.64 0 6 C-0.99 5.67 -1.98 5.34 -3 5 C-1.75 2.5 -1.75 2.5 0 0 Z " fill="#DDC35F" transform="translate(282,218)"/>
<path d="M0 0 C-0.33 1.32 -0.66 2.64 -1 4 C-4.3 4.33 -7.6 4.66 -11 5 C-7.72224847 1.72224847 -4.73330318 0 0 0 Z " fill="#5B1F3D" transform="translate(310,170)"/>
<path d="M0 0 C0.33 0 0.66 0 1 0 C0.40546697 9.59453303 0.40546697 9.59453303 -3 13 C-2.88490339 11.58249437 -2.75746342 10.16598831 -2.625 8.75 C-2.55539063 7.96109375 -2.48578125 7.1721875 -2.4140625 6.359375 C-1.98492887 3.914123 -1.21399362 2.15163097 0 0 Z " fill="#EBCB65" transform="translate(166,151)"/>
<path d="M0 0 C-0.33 1.65 -0.66 3.3 -1 5 C-2.65 4.67 -4.3 4.34 -6 4 C-6 3.34 -6 2.68 -6 2 C-2.25 0 -2.25 0 0 0 Z " fill="#57194B" transform="translate(267,189)"/>
<path d="M0 0 C-0.33 1.65 -0.66 3.3 -1 5 C-3.31 4.67 -5.62 4.34 -8 4 C-5.60952106 1.60952106 -3.45854519 0 0 0 Z " fill="#602244" transform="translate(278,183)"/>
<path d="M0 0 C0 0.99 0 1.98 0 3 C-4.455 3.495 -4.455 3.495 -9 4 C-5 0 -5 0 0 0 Z " fill="#F0AF85" transform="translate(96,310)"/>
<path d="M0 0 C5.875 4.625 5.875 4.625 7 8 C6.34 8 5.68 8 5 8 C5 7.34 5 6.68 5 6 C3.68 5.67 2.36 5.34 1 5 C0.67 3.35 0.34 1.7 0 0 Z " fill="#52163A" transform="translate(288,240)"/>
<path d="M0 0 C0.625 1.8125 0.625 1.8125 1 4 C0.01 5.485 0.01 5.485 -1 7 C-1.66 7 -2.32 7 -3 7 C-3 7.99 -3 8.98 -3 10 C-3.66 10 -4.32 10 -5 10 C-3.66511872 6.40608886 -2.03977277 3.24509304 0 0 Z " fill="#CE4BC8" transform="translate(66,231)"/>
<path d="M0 0 C2.4375 0.375 2.4375 0.375 5 1 C5.33 1.66 5.66 2.32 6 3 C5.67 3.66 5.34 4.32 5 5 C5.66 5 6.32 5 7 5 C6.67 5.99 6.34 6.98 6 8 C4.02 5.36 2.04 2.72 0 0 Z " fill="#F4B78A" transform="translate(153,126)"/>
<path d="M0 0 C1.32 0.99 2.64 1.98 4 3 C3.34 4.32 2.68 5.64 2 7 C0.62437146 5.71034824 -0.70766393 4.37310707 -2 3 C-2 2.34 -2 1.68 -2 1 C-1.34 0.67 -0.68 0.34 0 0 Z " fill="#F0C37C" transform="translate(86,44)"/>
<path d="M0 0 C-3.42094242 2.28062828 -4.68187222 2.21925007 -8.6875 2.125 C-10.17830078 2.09792969 -10.17830078 2.09792969 -11.69921875 2.0703125 C-12.45847656 2.04710937 -13.21773437 2.02390625 -14 2 C-14 1.67 -14 1.34 -14 1 C-12.41913952 0.63495397 -10.83516093 0.28339494 -9.25 -0.0625 C-8.36828125 -0.25972656 -7.4865625 -0.45695312 -6.578125 -0.66015625 C-4.01320972 -0.99825872 -2.42908361 -0.81158635 0 0 Z " fill="#F6AD8A" transform="translate(62,323)"/>
<path d="M0 0 C0.66 1.32 1.32 2.64 2 4 C0.02 4.99 -1.96 5.98 -4 7 C-3.67 5.68 -3.34 4.36 -3 3 C-2.34 3 -1.68 3 -1 3 C-0.67 2.01 -0.34 1.02 0 0 Z " fill="#F0B882" transform="translate(138,277)"/>
<path d="M0 0 C1 3 1 3 0.22265625 4.82421875 C-0.8515625 6.54947917 -1.92578125 8.27473958 -3 10 C-4.26339822 6.20980534 -3.49719015 4.62477616 -2 1 C-1.34 0.67 -0.68 0.34 0 0 Z " fill="#EAC864" transform="translate(58,239)"/>
<path d="M0 0 C0.66 0 1.32 0 2 0 C1.8125 2.3125 1.8125 2.3125 1 5 C-1.5625 6.8125 -1.5625 6.8125 -4 8 C-2.87548273 5.0280615 -1.77706209 2.66559313 0 0 Z " fill="#E7D26C" transform="translate(64,227)"/>
<path d="M0 0 C0.99 0.33 1.98 0.66 3 1 C0.69 3.31 -1.62 5.62 -4 8 C-4.33 7.01 -4.66 6.02 -5 5 C-3.35 3.35 -1.7 1.7 0 0 Z " fill="#4E1239" transform="translate(308,188)"/>
<path d="M0 0 C0 0.99 0 1.98 0 3 C-1.65 3.66 -3.3 4.32 -5 5 C-5.33 3.68 -5.66 2.36 -6 1 C-4 0 -4 0 0 0 Z " fill="#A9C035" transform="translate(191,184)"/>
<path d="M0 0 C2.31 0 4.62 0 7 0 C8.33332095 2.6666419 7.67102033 4.16680303 7 7 C6.938125 6.071875 6.938125 6.071875 6.875 5.125 C6.58625 4.42375 6.2975 3.7225 6 3 C3.00384054 1.6954344 3.00384054 1.6954344 0 1 C0 0.67 0 0.34 0 0 Z " fill="#D7B363" transform="translate(224,175)"/>
<path d="M0 0 C1.65 0.33 3.3 0.66 5 1 C3.35 2.98 1.7 4.96 0 7 C-0.93423645 3.98968256 -1.04449911 3.13349732 0 0 Z " fill="#DBCE55" transform="translate(173,140)"/>
<path d="M0 0 C0.33 0 0.66 0 1 0 C1.37211538 6.57403846 1.37211538 6.57403846 -0.51171875 8.73046875 C-1.00285156 9.14941406 -1.49398437 9.56835938 -2 10 C-1.85950482 8.52031676 -1.71245174 7.04125484 -1.5625 5.5625 C-1.48128906 4.73878906 -1.40007813 3.91507812 -1.31640625 3.06640625 C-1 1 -1 1 0 0 Z " fill="#F0C86B" transform="translate(40,279)"/>
<path d="M0 0 C2.97 0.495 2.97 0.495 6 1 C6 1.99 6 2.98 6 4 C5.01 4.495 5.01 4.495 4 5 C1.875 4.0625 1.875 4.0625 0 3 C0 2.01 0 1.02 0 0 Z " fill="#DCBB6D" transform="translate(154,272)"/>
<path d="M0 0 C0.185625 0.8971875 0.185625 0.8971875 0.375 1.8125 C0.95475985 4.26231348 0.95475985 4.26231348 3 7 C2.01 7 1.02 7 0 7 C-0.33 7.66 -0.66 8.32 -1 9 C-1 8.34 -1 7.68 -1 7 C-1.66 6.67 -2.32 6.34 -3 6 C-2.01 4.02 -1.02 2.04 0 0 Z " fill="#E2A979" transform="translate(194,255)"/>
<path d="M0 0 C0.33 0 0.66 0 1 0 C1.33 3.96 1.66 7.92 2 12 C1.01 12.495 1.01 12.495 0 13 C-1.29676812 8.38926889 -0.71109139 4.66159911 0 0 Z " fill="#DCAD6F" transform="translate(133,226)"/>
<path d="M0 0 C0.99 0.33 1.98 0.66 3 1 C4.1875 4.5625 4.1875 4.5625 5 8 C3.0625 7.375 3.0625 7.375 1 6 C0.25 2.875 0.25 2.875 0 0 Z " fill="#F1C172" transform="translate(157,194)"/>
<path d="M0 0 C3.48330216 0.64505596 6.09432866 1.98217268 9 4 C9 4.66 9 5.32 9 6 C5.06326356 4.68775452 2.77280706 3.08089673 0 0 Z " fill="#E7C66F" transform="translate(133,165)"/>
<path d="M0 0 C0.66 0 1.32 0 2 0 C3.26237731 2.52475462 3.09856404 4.31200466 3.0625 7.125 C3.05347656 8.03507813 3.04445312 8.94515625 3.03515625 9.8828125 C3.02355469 10.58148438 3.01195312 11.28015625 3 12 C2.67 12 2.34 12 2 12 C1.34 8.04 0.68 4.08 0 0 Z " fill="#DCCD50" transform="translate(226,145)"/>
<path d="M0 0 C2.52588702 2.36292656 3.88820837 3.66462511 5 7 C3.02 6.34 1.04 5.68 -1 5 C-0.67 3.35 -0.34 1.7 0 0 Z " fill="#ECAC84" transform="translate(206,314)"/>
<path d="M0 0 C2.475 0.495 2.475 0.495 5 1 C5 1.66 5 2.32 5 3 C5.66 3 6.32 3 7 3 C6.67 3.99 6.34 4.98 6 6 C4.68 4.68 3.36 3.36 2 2 C1.01 2.495 1.01 2.495 0 3 C0 2.01 0 1.02 0 0 Z " fill="#D9BD63" transform="translate(222,299)"/>
<path d="M0 0 C1.98 0.495 1.98 0.495 4 1 C2.515 3.475 2.515 3.475 1 6 C-0.0625 4.125 -0.0625 4.125 -1 2 C-0.67 1.34 -0.34 0.68 0 0 Z " fill="#D041D5" transform="translate(139,269)"/>
<path d="M0 0 C0.66 0 1.32 0 2 0 C1.6875 1.875 1.6875 1.875 1 4 C0.01 4.66 -0.98 5.32 -2 6 C-2 2 -2 2 0 0 Z " fill="#F5BE83" transform="translate(191,262)"/>
<path d="M0 0 C3.08669204 3.08669204 3.44855089 3.91927658 4 8 C3.01 8.495 3.01 8.495 2 9 C1.34 6.03 0.68 3.06 0 0 Z " fill="#E4B07A" transform="translate(141,253)"/>
<path d="M0 0 C0.99 1.32 1.98 2.64 3 4 C2.67 4.66 2.34 5.32 2 6 C1.01 5.67 0.02 5.34 -1 5 C-1.33 5.99 -1.66 6.98 -2 8 C-2.33 7.34 -2.66 6.68 -3 6 C-2.06553465 3.96855359 -1.06775224 1.96466413 0 0 Z " fill="#D049CE" transform="translate(56,248)"/>
<path d="M0 0 C-0.66 1.32 -1.32 2.64 -2 4 C-3.65 3.67 -5.3 3.34 -7 3 C-7 2.34 -7 1.68 -7 1 C-4.53721199 -0.231394 -2.7204945 -0.07159196 0 0 Z " fill="#D13ED8" transform="translate(135,217)"/>
<path d="M0 0 C0.66 0 1.32 0 2 0 C2.66 1.32 3.32 2.64 4 4 C2.68 4.99 1.36 5.98 0 7 C0 4.69 0 2.38 0 0 Z " fill="#56194A" transform="translate(285,208)"/>
<path d="M0 0 C2.24027294 2.88035092 4.16172132 5.84866512 6 9 C4.35 8.67 2.7 8.34 1 8 C0.67 5.36 0.34 2.72 0 0 Z " fill="#5A2140" transform="translate(234,198)"/>
<path d="M0 0 C1.7074998 1.28062485 3.37373596 2.61767557 5 4 C5 4.66 5 5.32 5 6 C3.35 5.67 1.7 5.34 0 5 C0 3.35 0 1.7 0 0 Z " fill="#D04EC7" transform="translate(148,121)"/>
<path d="M0 0 C1.32 1.32 2.64 2.64 4 4 C3.01 4 2.02 4 1 4 C1 4.66 1 5.32 1 6 C0.34 6 -0.32 6 -1 6 C-1.33 5.01 -1.66 4.02 -2 3 C-1.34 2.01 -0.68 1.02 0 0 Z " fill="#D442D3" transform="translate(137,108)"/>
</svg>
